<svg version="1.1" xmlns="http://www.w3.org/2000/svg" width="1254" height="1254"><path d="M0 0 C413.82 0 827.64 0 1254 0 C1254 413.82 1254 827.64 1254 1254 C840.18 1254 426.36 1254 0 1254 C0 840.18 0 426.36 0 0 Z " fill="#111520" transform="translate(0,0)"/><path d="M0 0 C1.94267802 -0.00231227 3.88535517 -0.00549387 5.82803053 -0.00945449 C11.09654606 -0.01770596 16.36498796 -0.01372182 21.63350356 -0.00748205 C27.34250647 -0.00291854 33.05149756 -0.00996046 38.76049805 -0.01544189 C49.9166187 -0.0242961 61.07271231 -0.02243173 72.22883398 -0.01661661 C81.30183433 -0.01208464 90.37482714 -0.01149384 99.44782829 -0.01366425 C101.39089203 -0.01412394 101.39089203 -0.01412394 103.37320958 -0.01459293 C106.00540547 -0.01523243 108.63760137 -0.01588086 111.26979726 -0.01653811 C135.20197065 -0.02206773 159.1341295 -0.0163509 183.06630054 -0.00585292 C204.86797429 0.00363783 226.66962467 0.00278643 248.47129822 -0.0067749 C273.02290105 -0.01750651 297.57448977 -0.02168161 322.12609476 -0.01555037 C324.74785546 -0.01491333 327.36961617 -0.01428459 329.99137688 -0.01366425 C331.28106402 -0.01335569 332.57075116 -0.01304714 333.89951973 -0.01272924 C342.95392154 -0.01100802 352.00831501 -0.01390498 361.06271553 -0.01862335 C372.10790689 -0.02425309 383.15306985 -0.02267188 394.19825799 -0.01206186 C399.82519376 -0.00683338 405.4520823 -0.00469985 411.07901764 -0.01136017 C416.24380191 -0.01738067 421.40849581 -0.01394548 426.57327204 -0.00340506 C428.42761824 -0.00119662 430.28197231 -0.00224867 432.13631333 -0.00715664 C482.90419142 -0.13107131 533.69471905 12.17961251 572.6526947 46.25396729 C573.16541931 46.69966064 573.67814392 47.145354 574.20640564 47.60455322 C592.76837298 63.84766818 608.13155684 83.93663931 616.5667572 107.28912354 C617.53303179 109.92726172 618.60219855 112.45411285 619.7776947 115.00396729 C623.59613403 123.46017889 625.57925363 132.01517571 627.2151947 141.12896729 C627.4233783 142.1976001 627.63156189 143.26623291 627.84605408 144.36724854 C632.71978909 171.28737735 631.94161227 198.86825494 631.89948499 226.10588777 C631.89282494 231.8545092 631.89787435 237.60312301 631.90136719 243.35174561 C631.90637621 254.57771492 631.90080899 265.80365448 631.89151689 277.02962009 C631.88106262 290.13764781 631.88120495 303.24566932 631.88168947 316.35370042 C631.88239527 340.46961114 631.87220621 364.58550746 631.85718703 388.70141292 C631.84357097 410.64495867 631.8373257 432.58849352 631.83799744 454.53204346 C631.83803785 455.94089929 631.83807821 457.34975511 631.83811852 458.75861094 C631.83813887 459.45517266 631.83815922 460.15173438 631.83818018 460.86940403 C631.838281 464.37694467 631.83837158 467.88448531 631.83845043 471.39202595 C631.83846715 472.08424239 631.83848386 472.77645883 631.83850108 473.48965153 C631.83894636 495.86451993 631.8318155 518.2393862 631.82408759 540.61425305 C631.82108853 549.7225903 631.82001009 558.83092661 631.81955528 567.9392643 C631.81886846 579.06165796 631.81433951 590.18404308 631.80522247 601.30643312 C631.80065004 606.96691008 631.79754183 612.62737622 631.79881668 618.28785515 C631.80551623 657.20601656 631.80551623 657.20601656 631.20611572 675.97776794 C631.16743982 677.20571494 631.12876391 678.43366194 631.088916 679.69881946 C630.78335008 687.86200116 630.78335008 687.86200116 629.6526947 691.25396729 C629.47957252 692.98310329 629.30937186 694.71262102 629.1592865 696.44390869 C628.09256893 708.109371 625.01189992 719.06671076 621.6526947 730.25396729 C621.44241638 730.97390869 621.23213806 731.6938501 621.01548767 732.43560791 C614.21122862 755.56668371 600.99263364 776.25566777 584.76597595 793.89459229 C583.32563709 795.50266007 581.93726906 797.15845027 580.5980072 798.85162354 C565.79889617 817.12763415 539.84642239 830.71268883 518.06285095 838.07037354 C514.81830263 839.19648824 511.69283559 840.48654219 508.5276947 841.81646729 C476.18310408 854.09971063 437.659432 851.70624861 403.62972486 851.63148224 C397.99723822 851.62248353 392.36477119 851.63112777 386.73228455 851.63734436 C375.75272092 851.64674287 364.77322388 851.64031312 353.79366527 851.62808142 C340.97210468 851.61433868 328.15055925 851.61610983 315.32899316 851.61821475 C291.75077268 851.62148681 268.1725928 851.60866657 244.59438322 851.58836971 C223.13293595 851.56998187 201.67152205 851.56419535 180.21006775 851.56964111 C178.83007993 851.56998755 177.4500921 851.57033365 176.07010428 851.5706794 C175.38781523 851.5708504 174.70552619 851.57102139 174.00256171 851.57119757 C170.56698651 851.5720513 167.13141129 851.57287507 163.69583607 851.57366657 C163.01783475 851.57382365 162.33983342 851.57398073 161.64128661 851.57414257 C143.62341616 851.5781425 125.60554983 851.57259873 107.587681 851.56415528 C105.00229847 851.56294815 102.41691595 851.56174217 99.83153343 851.56053734 C97.92411901 851.55963203 97.92411901 851.55963203 95.97817096 851.55870843 C87.06429079 851.55484694 78.15041663 851.55521591 69.23653603 851.55712318 C58.36594805 851.55925507 47.49539197 851.55394564 36.62481294 851.53950963 C31.09057913 851.53231614 25.55639152 851.52814508 20.02215385 851.53275299 C-32.39345324 851.57095555 -32.39345324 851.57095555 -58.36683655 846.61871338 C-60.20813613 846.27959829 -62.05891268 845.9930973 -63.9098053 845.71099854 C-96.80624079 840.24049754 -127.559569 822.52194813 -150.8473053 799.06646729 C-151.67536682 798.23276611 -152.50342834 797.39906494 -153.35658264 796.5401001 C-175.58032858 773.87493855 -187.31766142 747.07454777 -195.63783264 716.82086182 C-196.27317825 714.52216129 -196.92763725 712.22985854 -197.58558655 709.93756104 C-199.89710221 701.62423304 -200.90074279 693.67935409 -201.17152405 685.09381104 C-201.27284698 681.34601306 -201.27284698 681.34601306 -201.85042655 678.04455298 C-202.39261409 673.90831581 -202.48588494 669.92845045 -202.47314644 665.76475239 C-202.47459988 664.93198755 -202.47605332 664.09922272 -202.4775508 663.24122259 C-202.48120061 660.45031178 -202.47772905 657.65945594 -202.47428894 654.86854553 C-202.47544118 652.84735593 -202.4770294 650.82616655 -202.47901618 648.8049776 C-202.48319582 643.24982535 -202.4811249 637.69469025 -202.47802997 632.13953793 C-202.47577036 626.14808289 -202.47925841 620.15663084 -202.48200989 614.16517639 C-202.48620418 603.10274439 -202.48583394 592.04031711 -202.48309842 580.97788508 C-202.48058185 570.75027269 -202.47992661 560.5226623 -202.48112106 550.29504967 C-202.48119745 549.61635072 -202.48127383 548.93765178 -202.48135253 548.2383862 C-202.48166389 545.48311211 -202.48198229 542.72783802 -202.4823123 539.97256393 C-202.4853722 514.11660683 -202.48259722 488.26065321 -202.4772154 462.40469665 C-202.47247668 439.46423356 -202.47288847 416.52377603 -202.47767639 393.58331299 C-202.48304095 367.79396072 -202.48514822 342.00461153 -202.48206413 316.21525878 C-202.48174343 313.46100247 -202.48143059 310.70674616 -202.48112106 307.95248985 C-202.48104199 307.27435378 -202.48096291 306.59621771 -202.48088143 305.89753205 C-202.47974736 295.68868906 -202.48106803 285.47984831 -202.48360062 275.27100563 C-202.48647053 263.64462316 -202.4856274 252.01824691 -202.48031987 240.39186517 C-202.47770312 234.46543025 -202.47664315 228.53900654 -202.47996902 222.61257172 C-202.48297438 217.17463729 -202.4812694 211.73672436 -202.47599147 206.29879185 C-202.47488514 204.34374589 -202.47541821 202.38869807 -202.47786726 200.43365333 C-202.51722845 166.36675228 -202.51722845 166.36675228 -199.7223053 150.56646729 C-199.46562073 149.08799316 -199.46562073 149.08799316 -199.20375061 147.57965088 C-194.74358718 123.24834627 -186.90565956 100.96178986 -173.3473053 80.25396729 C-172.9741217 79.67727295 -172.60093811 79.10057861 -172.21644592 78.50640869 C-158.78848857 58.00046178 -140.3239547 40.83510122 -119.3473053 28.25396729 C-118.61253967 27.81197998 -117.87777405 27.36999268 -117.1207428 26.91461182 C-106.2015355 20.4849699 -94.90570378 15.74107632 -82.9098053 11.75396729 C-81.67867004 11.34468994 -80.44753479 10.9354126 -79.17909241 10.51373291 C-70.99320983 7.89179104 -62.78129803 5.89781896 -54.3473053 4.25396729 C-52.98810974 3.98024292 -52.98810974 3.98024292 -51.60145569 3.70098877 C-34.59003171 0.55385271 -17.25452642 -0.04572885 0 0 Z " fill="#0F1724" transform="translate(412.34730529785156,195.74603271484375)"/><path d="M0 0 C3.04243205 1.29677432 5.05228912 3.051989 7.5078125 5.265625 C19.97396651 15.85932556 32.62339796 17.15470645 48.3828125 16.015625 C57.87462307 14.30483178 67.78195904 9.34808963 74.1953125 2.015625 C75.278125 1.025625 75.278125 1.025625 76.3828125 0.015625 C81.55184664 0.25745116 85.46031438 2.44515436 89.8203125 5.015625 C90.52639648 5.42224365 91.23248047 5.8288623 91.95996094 6.24780273 C96.98235648 9.15358523 101.95120225 12.14811691 106.91210938 15.1574707 C113.48212753 19.12061615 120.15307256 22.90692716 126.8203125 26.703125 C136.72998186 32.34638308 146.60762085 38.03936552 156.44970703 43.80004883 C163.67966078 48.02957775 170.93368278 52.21575974 178.1953125 56.390625 C188.53551615 62.33916416 198.80802492 68.39480166 209.06103516 74.49169922 C216.78882722 79.08347607 224.54613836 83.61202252 232.3828125 88.015625 C232.33060547 89.53929687 232.33060547 89.53929687 232.27734375 91.09375 C231.87322467 107.82387174 235.55041502 121.9310634 247.36376953 134.43603516 C251.04728488 137.58337651 254.90328729 139.64189372 259.20703125 141.8203125 C259.99444702 142.22757568 260.78186279 142.63483887 261.59313965 143.05444336 C263.51908259 144.04918522 265.4504136 145.03348342 267.3828125 146.015625 C267.42948608 171.77979795 267.46477854 197.54396459 267.48643684 223.30817127 C267.49675944 235.2703219 267.51083851 247.23244629 267.53369141 259.19458008 C267.55359523 269.61799836 267.56652178 280.04139764 267.57098949 290.46483439 C267.57360198 295.98646087 267.5797628 301.508033 267.59427261 307.02964211 C267.60780904 312.22272044 267.61204315 317.41572184 267.60902786 322.60881615 C267.6095798 324.51844068 267.61358062 326.42806768 267.62122345 328.337677 C267.63112309 330.9378856 267.6287997 333.53780085 267.62332153 336.13801575 C267.63206006 337.2805196 267.63206006 337.2805196 267.64097512 338.44610435 C267.61955249 342.18870747 267.51444853 343.81817096 265.3828125 347.015625 C263.1328125 347.8671875 263.1328125 347.8671875 260.3828125 348.640625 C249.60879548 352.34022193 242.40145085 361.31789441 236.6953125 370.828125 C233.55811209 378.44704029 232.26517231 384.73206512 232.63818359 392.98583984 C233.13758971 404.85132147 233.13758971 404.85132147 230.77734375 408.4921875 C228.37337435 410.0834876 226.09285424 411.03985196 223.3828125 412.015625 C221.64086411 412.9505239 219.911962 413.91004628 218.1953125 414.890625 C217.256875 415.39335938 216.3184375 415.89609375 215.3515625 416.4140625 C207.81289164 420.48097704 200.42050422 424.8175207 193.03125 429.1484375 C181.66721397 435.80759366 170.25415025 442.35605151 158.74536133 448.76196289 C150.52375534 453.3492926 142.38581279 458.06886679 134.26611328 462.83374023 C126.53415734 467.36423271 118.74579759 471.78657334 110.92578125 476.16308594 C105.97951495 478.94236766 101.08018144 481.78022692 96.2265625 484.71875 C95.2257666 485.32259521 94.2249707 485.92644043 93.19384766 486.54858398 C91.28139642 487.70772726 89.37448636 488.8760785 87.47412109 490.05493164 C86.61641113 490.57434326 85.75870117 491.09375488 84.875 491.62890625 C84.12589355 492.09079346 83.37678711 492.55268066 82.60498047 493.02856445 C79.98995205 494.19012893 78.21608637 494.3160748 75.3828125 494.015625 C73.20703125 492.40625 73.20703125 492.40625 71.0703125 490.265625 C65.42045863 484.95363614 59.78721026 482.23694433 52.3828125 480.015625 C52.3828125 479.355625 52.3828125 478.695625 52.3828125 478.015625 C36.02480468 477.57527982 21.86415928 477.43109654 8.3828125 488.015625 C7.2743008 489.15839534 6.1869035 490.32247187 5.1328125 491.515625 C2.3828125 494.015625 2.3828125 494.015625 -0.9206543 493.86376953 C-4.64849599 493.00844148 -7.2260911 491.87290253 -10.51171875 489.9453125 C-11.61854004 489.30392334 -12.72536133 488.66253418 -13.86572266 488.00170898 C-15.0538042 487.29817179 -16.24178997 486.59447285 -17.4296875 485.890625 C-18.67692109 485.16302762 -19.924817 484.4365645 -21.17333984 483.71118164 C-23.74043705 482.21779378 -26.30396827 480.71855269 -28.86474609 479.21435547 C-33.41131642 476.54601748 -37.98049286 473.91737193 -42.55029297 471.2890625 C-50.11285951 466.93916955 -57.66295335 462.56761115 -65.21484375 458.19921875 C-76.6743427 451.57457973 -88.15996352 445.00300858 -99.69677734 438.51391602 C-105.58762198 435.19083577 -111.40970814 431.77655119 -117.18579102 428.25854492 C-121.96898221 425.3617576 -126.84214138 422.64661591 -131.7421875 419.953125 C-151.60047342 409.03233908 -151.60047342 409.03233908 -154.6171875 406.015625 C-154.7267621 404.2067954 -154.77308142 402.39406757 -154.79296875 400.58203125 C-154.82874023 398.8949707 -154.82874023 398.8949707 -154.86523438 397.17382812 C-154.90756985 394.81202164 -154.93915699 392.44999329 -154.95898438 390.08789062 C-155.25699864 377.86930593 -159.16713247 367.75775799 -167.6875 358.8515625 C-172.75937342 354.13312973 -178.79410114 349.0119847 -185.75390625 347.57421875 C-187.6171875 347.015625 -187.6171875 347.015625 -189.6171875 344.015625 C-189.8127803 341.3616082 -189.89109013 338.81257881 -189.87788391 336.15820312 C-189.88170946 335.34921318 -189.88553501 334.54022324 -189.88947648 333.70671844 C-189.89982338 330.98670518 -189.89581116 328.26690234 -189.8918457 325.546875 C-189.89619121 323.60058394 -189.90137381 321.6542946 -189.90733337 319.70800781 C-189.92075104 314.41474521 -189.92129904 309.12155389 -189.91877007 303.82827759 C-189.91770238 299.41446097 -189.92257848 295.0006589 -189.9273755 290.5868454 C-189.93847995 280.17767759 -189.93890261 269.76854587 -189.93286133 259.359375 C-189.92681762 248.60808039 -189.9391405 237.85691652 -189.9604314 227.10564423 C-189.97802174 217.8852225 -189.98405288 208.6648425 -189.98079365 199.4444046 C-189.97897678 193.93287097 -189.98165727 188.42143061 -189.99550819 182.90991211 C-190.00804047 177.72905669 -190.00618624 172.54840582 -189.99309731 167.36755371 C-189.99072202 165.46276787 -189.99350004 163.55796783 -190.00172043 161.65319824 C-190.01210932 159.05957371 -190.00415113 156.4666456 -189.9914093 153.87304688 C-189.99878359 153.113424 -190.00615787 152.35380112 -190.01375562 151.57115936 C-189.96130433 146.52122643 -189.96130433 146.52122643 -188.31254864 144.09875488 C-186.6171875 143.015625 -186.6171875 143.015625 -183.1171875 141.828125 C-170.51712889 137.3646356 -163.26208648 127.82467535 -157.59765625 116.3125 C-155.99013273 112.546668 -155.49167558 109.22108044 -155.40625 105.13671875 C-155.36371094 103.75516602 -155.36371094 103.75516602 -155.3203125 102.34570312 C-155.268129 100.41360896 -155.22388788 98.48128431 -155.1875 96.54882812 C-155.14109375 95.16920898 -155.14109375 95.16920898 -155.09375 93.76171875 C-155.07393066 92.92310303 -155.05411133 92.0844873 -155.03369141 91.22045898 C-154.51493407 88.47432912 -153.81164825 87.71369443 -151.6171875 86.015625 C-150.03472231 85.07084886 -148.41930946 84.18038161 -146.78515625 83.328125 C-140.68379944 80.07567023 -134.72092729 76.60901745 -128.76611328 73.09823608 C-126.87630119 71.98415267 -124.98520333 70.8722808 -123.09375 69.76098633 C-120.50572499 68.24041353 -117.91802215 66.71929516 -115.33056641 65.19775391 C-109.93136606 62.02387726 -104.52583301 58.86087647 -99.1171875 55.703125 C-98.14418701 55.13489014 -97.17118652 54.56665527 -96.16870117 53.98120117 C-89.71712889 50.22072287 -83.23600341 46.51504847 -76.7421875 42.828125 C-69.37400681 38.64459104 -62.10133263 34.33158932 -54.91455078 29.84301758 C-50.25186431 26.94697746 -45.49367003 24.28831828 -40.66455078 21.68017578 C-34.84987844 18.50404727 -29.11459368 15.18639371 -23.3671875 11.890625 C-22.12766302 11.18088679 -20.88807993 10.47125093 -19.6484375 9.76171875 C-19.04664673 9.41691467 -18.44485596 9.0721106 -17.8248291 8.71685791 C-16.09258648 7.72593082 -14.35785433 6.73935965 -12.62304688 5.75292969 C-10.85643784 4.73187788 -9.10140194 3.68938052 -7.37695312 2.59863281 C-4.80594925 0.97959523 -3.07712285 0.01837088 0 0 Z " fill="#0F1824" transform="translate(588.6171875,374.984375)"/><path d="M0 0 C1.78523356 -0.00463811 3.57046615 -0.00966407 5.35569763 -0.01504517 C10.17175452 -0.02806878 14.98779754 -0.03459339 19.80386925 -0.03905582 C22.81920427 -0.04200064 25.83453562 -0.04610783 28.84986877 -0.05056 C38.30372266 -0.06420353 47.75756799 -0.0738876 57.21143103 -0.07776189 C68.09006277 -0.08224615 78.9685691 -0.09982439 89.84716272 -0.12876248 C98.28319378 -0.15041812 106.71918962 -0.16046811 115.15524817 -0.16180301 C120.18236989 -0.16284751 125.20937321 -0.16868056 130.23646545 -0.18662262 C134.9643933 -0.20317248 139.69211451 -0.20522544 144.42006111 -0.19648361 C146.146923 -0.19571714 147.87379634 -0.20000397 149.60062981 -0.20994186 C169.032625 -0.31514751 183.40474099 4.4427159 199.02929688 16.16113281 C199.91617187 16.80050781 200.80304688 17.43988281 201.71679688 18.09863281 C213.79075375 28.86729705 219.66391302 41.9169658 224.02929688 57.16113281 C224.20267169 57.75853397 224.3760465 58.35593513 224.5546751 58.97143936 C225.08426442 61.41472856 225.16415607 63.62791691 225.1764679 66.12811279 C225.18720085 67.6288459 225.18720085 67.6288459 225.19815063 69.15989685 C225.20083954 70.25181839 225.20352844 71.34373993 225.20629883 72.46875 C225.21287003 73.62381546 225.21944122 74.77888092 225.22621155 75.96894836 C225.24594771 79.79863553 225.25761214 83.62828334 225.26757812 87.45800781 C225.27165365 88.76930916 225.27572918 90.0806105 225.27992821 91.43164825 C225.29898224 97.66483225 225.31320519 103.89800449 225.32154018 110.131212 C225.33127276 117.28917668 225.3574861 124.44682883 225.39804107 131.60468364 C225.42840769 137.15826169 225.44302884 142.71175133 225.44632119 148.26541066 C225.4486511 151.57143529 225.45937305 154.87705417 225.48278236 158.18300629 C225.64551373 182.70204812 223.16573241 203.46427309 205.5168457 221.79711914 C192.41949794 234.90678222 176.16559804 243.18841415 157.42285156 243.35668945 C153.62250489 243.34510731 149.82815882 243.26842285 146.02929688 243.16113281 C145.805 243.7115625 145.58070313 244.26199219 145.34960938 244.82910156 C143.61835711 247.88696429 141.40691963 250.00935108 138.90429688 252.47363281 C138.41437256 252.95783691 137.92444824 253.44204102 137.41967773 253.94091797 C133.95617694 257.33601929 130.35665284 260.52954845 126.66992188 263.67675781 C124.50605706 265.63454027 122.796577 267.84538644 121.02929688 270.16113281 C118.40429688 272.97363281 118.40429688 272.97363281 116.02929688 275.16113281 C115.36929688 275.16113281 114.70929688 275.16113281 114.02929688 275.16113281 C113.69929687 276.15113281 113.36929688 277.14113281 113.02929688 278.16113281 C111.43554687 279.69628906 111.43554687 279.69628906 109.52929688 281.22363281 C106.84823286 283.33835049 106.84823286 283.33835049 105.02929688 286.16113281 C104.36929688 286.16113281 103.70929688 286.16113281 103.02929688 286.16113281 C103.02929688 272.30113281 103.02929688 258.44113281 103.02929688 244.16113281 C97.44362793 244.18469849 97.44362793 244.18469849 91.74511719 244.20874023 C79.415807 244.25853993 67.08649825 244.29177642 54.75711441 244.31656933 C47.28480123 244.33199667 39.81258376 244.35300645 32.34033203 244.38745117 C25.82271339 244.41748085 19.30516412 244.43673781 12.78747821 244.4433983 C9.34074734 244.44728775 5.89421481 244.45634064 2.44754791 244.47832298 C-1.41293376 244.50274175 -5.27322659 244.50309417 -9.13378906 244.50170898 C-10.82233757 244.51788773 -10.82233757 244.51788773 -12.54499817 244.53439331 C-31.47802603 244.46130315 -48.90876635 236.73422423 -62.72070312 223.91113281 C-82.54076264 202.75655557 -84.28946175 180.12367123 -84.27148438 152.44628906 C-84.27537833 149.94249908 -84.27971442 147.43870976 -84.2844696 144.93492126 C-84.29190218 139.70439506 -84.29166175 134.47393639 -84.28637695 129.2434082 C-84.28100647 123.89860817 -84.28805721 118.55399765 -84.30688477 113.20922852 C-84.32945332 106.71676626 -84.33712185 100.2244615 -84.3332119 93.7319622 C-84.33372199 91.27341601 -84.33890051 88.81486581 -84.34902382 86.35634041 C-84.44332782 60.25814456 -80.85945932 39.76390581 -62.34570312 20.03613281 C-54.7311141 12.65692521 -45.77067151 7.14015612 -35.97070312 3.16113281 C-35.08382812 2.78988281 -34.19695313 2.41863281 -33.28320312 2.03613281 C-22.59617702 -0.78685521 -10.98490933 0.00670918 0 0 Z " fill="#00DEA8" transform="translate(556.970703125,501.8388671875)"/><path d="M0 0 C17.10818188 -0.58619405 30.81305041 1.82894101 44.3125 13.25 C56.49862418 24.81812739 59.39551114 38.81584158 59.82421875 54.97265625 C59.83541748 55.67656494 59.84661621 56.38047363 59.8581543 57.10571289 C59.93923825 59.22522323 59.93923825 59.22522323 61 62 C62.63935173 62.73126476 64.31409622 63.38359862 66 64 C68.29428874 65.2198206 70.55640756 66.46340584 72.8125 67.75 C73.49481689 68.13631592 74.17713379 68.52263184 74.88012695 68.9206543 C82.2209216 73.09407233 89.50484259 77.36576706 96.79345703 81.62939453 C103.40575801 85.4951272 110.03465696 89.32947178 116.6875 93.125 C117.53449463 93.60839844 118.38148926 94.09179688 119.25415039 94.58984375 C123.69574202 97.12233392 128.14151799 99.64732793 132.58984375 102.16796875 C140.64679831 106.74131142 148.66221984 111.30271267 156.41918945 116.37524414 C158.91651291 117.94744049 161.44470518 119.37544675 164.04296875 120.7734375 C170.11347363 124.05942818 176.15736963 127.39050322 182.1875 130.75 C183.27450195 131.35400635 184.36150391 131.9580127 185.48144531 132.58032227 C192.54691088 136.53645961 199.4746 140.64088981 206.14135742 145.24316406 C208.72149168 146.95293063 210.48989134 147.99544546 213.625 148.0234375 C216.6392241 146.72454488 218.42955072 145.0041577 220.75 142.6875 C225.23098745 138.49281636 229.22419456 135.97996361 235 134 C236.5778125 133.38125 236.5778125 133.38125 238.1875 132.75 C251.41318003 130.14822688 264.40340353 132.3164087 275.9375 139.3125 C287.22161508 147.12712143 294.96343183 157.11468486 297.56640625 170.80859375 C299.45480672 184.70790173 296.45759532 197.81211497 288.35546875 209.33984375 C281.40998666 217.89375328 271.98900861 222.78250077 262 227 C261.97666321 252.76417981 261.95901697 278.52835803 261.94818783 304.29254627 C261.94302654 316.25468613 261.935987 328.21681943 261.92456055 340.17895508 C261.91460864 350.60237323 261.90814536 361.02578663 261.90591151 371.44920939 C261.90460527 376.97081794 261.90152485 382.4924129 261.89426994 388.01401711 C261.88750175 393.2070802 261.88538468 398.40012406 261.88689232 403.59319115 C261.88661635 405.50281249 261.88461596 407.41243446 261.88079453 409.322052 C261.87584484 411.92218884 261.87700648 414.52225234 261.87974548 417.12239075 C261.87683264 417.88405999 261.8739198 418.64572922 261.87091869 419.43047935 C261.87988092 422.56194105 262.00180441 425.00541322 263 428 C264.19625 428.0825 265.3925 428.165 266.625 428.25 C270.89710339 428.81762213 273.71887566 430.24808926 277 433 C277.78632812 433.65484375 278.57265625 434.3096875 279.3828125 434.984375 C284.63535879 439.53135537 289.39011675 444.03351641 293 450 C293.48597656 450.79019531 293.97195313 451.58039063 294.47265625 452.39453125 C299.56486255 462.3094399 298.46999123 473.16561754 298 484 C297.34 484 296.68 484 296 484 C295.938125 484.78375 295.87625 485.5675 295.8125 486.375 C293.17817904 498.12812427 285.4125296 507.30579691 275.5625 513.9375 C263.83103095 520.77951221 250.40694722 522.24157398 237.1640625 519.0859375 C229.72626283 516.3986206 223.58146322 512.58146322 218 507 C213.3148188 506.26538971 210.72494923 508.09935763 206.875 510.625 C205.71627265 511.36941638 204.55609376 512.11157781 203.39453125 512.8515625 C202.53335693 513.40312012 202.53335693 513.40312012 201.65478516 513.96582031 C199.34261591 515.41084081 196.96487284 516.71161634 194.5625 518 C186.17126176 522.50729368 177.93137645 527.27434452 169.71875 532.09765625 C159.08787486 538.33722503 148.41581068 544.47801185 137.625 550.4375 C125.42918464 557.17407822 113.34946036 564.09586003 101.29980469 571.08984375 C97.86361885 573.07894689 94.42109146 575.05665012 90.9765625 577.03125 C89.80733438 577.7024066 88.63814457 578.37362994 87.46899414 579.04492188 C85.27651197 580.30324605 83.08306541 581.55989215 80.88842773 582.81445312 C69.83320021 588.57662337 69.83320021 588.57662337 60 596 C59.78632549 598.71247924 59.6226678 601.40813549 59.5 604.125 C58.84149024 618.27076511 55.75859822 627.72283491 47 639 C46.52304687 639.6290625 46.04609375 640.258125 45.5546875 640.90625 C39.5183572 647.85909118 28.1682795 653.83602712 19 655 C13.22329553 655.28410022 7.61607743 654.84066066 1.875 654.1875 C0.87182739 654.08248169 0.87182739 654.08248169 -0.15161133 653.9753418 C-11.67335144 652.5512746 -20.60241555 645.58841512 -28 637 C-31.47317297 632.18533694 -35 627.09083744 -35 621 C-35.66 621 -36.32 621 -37 621 C-38.15664737 615.51730931 -38.11416255 610.19660726 -38.0625 604.625 C-38.05573242 603.23474609 -38.05573242 603.23474609 -38.04882812 601.81640625 C-38.03711574 599.54420291 -38.02071372 597.27213612 -38 595 C-38.680625 594.74992188 -39.36125 594.49984375 -40.0625 594.2421875 C-43.52401485 592.77840861 -46.74355282 590.98787452 -50 589.125 C-50.69222656 588.73207764 -51.38445312 588.33915527 -52.09765625 587.93432617 C-53.60633639 587.07704595 -55.11411417 586.21817621 -56.62109375 585.35791016 C-59.03718635 583.97877355 -61.45592953 582.60437426 -63.875 581.23046875 C-74.1422426 575.38980396 -84.35817377 569.46521594 -94.5534668 563.5 C-102.4460382 558.88943181 -110.37235809 554.34041147 -118.3125 549.8125 C-126.83417684 544.9527941 -135.3484216 540.08153938 -143.83227539 535.15600586 C-148.35419378 532.53083409 -152.8815403 529.91542593 -157.4140625 527.30859375 C-158.53707764 526.66220947 -159.66009277 526.0158252 -160.81713867 525.34985352 C-163.08464011 524.04540724 -165.35301642 522.74248041 -167.62231445 521.44116211 C-172.39678122 518.69517739 -177.15245275 515.93841163 -181.81640625 513.0078125 C-182.8513623 512.36126709 -182.8513623 512.36126709 -183.90722656 511.70166016 C-185.66127511 510.59537787 -187.40350559 509.47041608 -189.14453125 508.34375 C-191.86793942 506.79899898 -191.86793942 506.79899898 -194.609375 507.078125 C-197.3186306 508.12287063 -199.16835265 509.44097438 -201.4375 511.25 C-213.8656266 520.12723328 -227.21521934 521.86236171 -242.015625 519.5234375 C-253.87142864 516.42899819 -263.87863225 508.30916275 -270.75 498.3125 C-276.24883214 488.67517399 -278.94605216 479.05387263 -278 468 C-277.938125 466.824375 -277.87625 465.64875 -277.8125 464.4375 C-276.07008807 457.06575724 -272.5591989 450.03423384 -268 444 C-267.55527344 443.38769531 -267.11054688 442.77539062 -266.65234375 442.14453125 C-260.32860344 434.11167194 -251.58737943 429.19579314 -242 426 C-242 360.33 -242 294.66 -242 227 C-245.3 225.68 -248.6 224.36 -252 223 C-263.32742692 215.28421644 -273.73612282 204.69095384 -277 191 C-278.7765587 175.26110087 -276.89732793 161.99194597 -266.91650391 149.44921875 C-259.1498433 140.17796246 -248.17301897 133.36923018 -236 132 C-223.41682505 131.0181196 -212.14845995 133.20327085 -202 141 C-199.94392326 142.84470436 -197.92273519 144.70365725 -195.95703125 146.64453125 C-193.3982878 148.41675476 -192.05858822 148.4665643 -189 148 C-186.76930156 146.76863128 -186.76930156 146.76863128 -184.625 145 C-180.73487376 142.14044578 -176.85386488 139.77469613 -172.5625 137.5625 C-165.31391249 133.81444062 -158.31689791 129.68403636 -151.3125 125.5 C-141.93109089 119.89777312 -132.50241221 114.39446959 -123 109 C-113.5635958 103.6418279 -104.19502528 98.18312237 -94.875 92.625 C-88.29134435 88.69946134 -81.71449417 84.77933445 -74.99047852 81.09790039 C-73.59481434 80.33233873 -72.20448679 79.55695567 -70.82006836 78.77124023 C-66.41146071 76.27270543 -61.94280966 74.00098518 -57.37890625 71.796875 C-45.85018574 66.58996129 -45.85018574 66.58996129 -37.86132812 57.44970703 C-36.78799775 52.02309805 -37.27325385 46.75878486 -37.85839844 41.29638672 C-38.16209618 36.37124704 -36.22946918 32.27374284 -34 28 C-33.56558594 27.1440625 -33.13117188 26.288125 -32.68359375 25.40625 C-27.20918319 15.50159438 -19.2086853 7.96015218 -9 3 C-5.86097282 2.23792404 -3.25358359 2.05333744 0 2 C0 1.34 0 0.68 0 0 Z M-36.26171875 83.7109375 C-37.80351807 84.58141724 -37.80351807 84.58141724 -39.37646484 85.46948242 C-40.46910645 86.09830322 -41.56174805 86.72712402 -42.6875 87.375 C-44.37673584 88.33466675 -44.37673584 88.33466675 -46.10009766 89.3137207 C-53.74866601 93.67099093 -61.35614218 98.09702635 -68.92578125 102.58984375 C-73.28571532 105.17620949 -77.67250767 107.71508191 -82.0625 110.25 C-87.23361437 113.23674148 -92.4002767 116.23059417 -97.5546875 119.24609375 C-107.72681322 125.19706933 -117.92015661 131.10561613 -128.16531372 136.92987061 C-140.93623847 144.19116098 -153.55760394 151.67202111 -166.125 159.28173828 C-170.2479157 161.74582462 -174.41378246 164.13431282 -178.58398438 166.51733398 C-181.06770992 167.91249497 -181.06770992 167.91249497 -183 170 C-183.30452686 172.06433156 -183.30452686 172.06433156 -183.2734375 174.4375 C-183.30002441 175.77325073 -183.30002441 175.77325073 -183.32714844 177.13598633 C-183.34293945 178.08111084 -183.35873047 179.02623535 -183.375 180 C-183.62610605 187.69044643 -184.02957903 194.22381487 -188 201 C-188.61101562 202.0828125 -188.61101562 202.0828125 -189.234375 203.1875 C-195.60954482 213.89148884 -204.10819061 221.10813511 -216 225 C-218.50474027 227.50474027 -218.24172401 229.00897307 -218.26748681 232.42645305 C-218.26302537 233.18898877 -218.25856392 233.95152449 -218.25396729 234.73716736 C-218.25708727 235.54530288 -218.26020725 236.3534384 -218.26342177 237.18606287 C-218.27143477 239.90918976 -218.26506533 242.63209584 -218.25878906 245.35522461 C-218.26149748 247.30136751 -218.26505757 249.24750938 -218.26940918 251.19364929 C-218.27855379 256.49110941 -218.27498025 261.78849194 -218.26865101 267.08595347 C-218.26360099 272.6205827 -218.26827974 278.15520512 -218.27142334 283.68983459 C-218.27506621 292.98683876 -218.2702558 302.28381119 -218.26074219 311.58081055 C-218.24986023 322.33944364 -218.25338006 333.09800092 -218.264395 343.85663217 C-218.27346256 353.08127809 -218.27475566 362.30590114 -218.26951766 371.53055006 C-218.26639462 377.04542856 -218.26599769 382.5602714 -218.27259064 388.07514763 C-218.27835563 393.26006059 -218.27438272 398.44487556 -218.26280212 403.62977791 C-218.26015086 405.53617312 -218.26092853 407.44257653 -218.26532745 409.34896851 C-218.27076608 411.9447078 -218.26396931 414.54013008 -218.25396729 417.135849 C-218.26065945 418.2763065 -218.26065945 418.2763065 -218.26748681 419.43980354 C-218.23941816 423.17719279 -218.12860647 424.8070903 -216 428 C-213.89124247 428.98170107 -213.89124247 428.98170107 -211.4375 429.75 C-199.60101131 434.25264123 -191.34085201 443.48326138 -185.9453125 454.703125 C-184.22283184 458.88832594 -183.90930432 462.33736364 -184 466.8671875 C-183.99806641 468.56681641 -183.99806641 468.56681641 -183.99609375 470.30078125 C-183.99868964 472.6760211 -184.03235527 475.05143779 -184.09765625 477.42578125 C-184.17269678 483.69181846 -184.17269678 483.69181846 -181.25927734 488.96386719 C-178.91350195 490.55094126 -176.5550375 491.78110544 -174 493 C-172.44374086 493.91565643 -170.89412839 494.84270875 -169.3515625 495.78125 C-167.77781857 496.69058217 -166.20228984 497.59683239 -164.625 498.5 C-163.8515625 498.94730469 -163.078125 499.39460938 -162.28125 499.85546875 C-158.08202936 502.27383179 -153.85521528 504.63056414 -149.59375 506.9375 C-143.94754899 510.00379264 -138.40976614 513.23799099 -132.875 516.5 C-123.16922515 522.19503542 -113.39154016 527.7476166 -103.55029297 533.20507812 C-98.15800355 536.20168738 -92.82910075 539.27409471 -87.55126953 542.46777344 C-81.10328729 546.34026497 -74.55898257 550.05134866 -68.03721619 553.7976532 C-67.45645828 554.13126358 -66.87570038 554.46487396 -66.27734375 554.80859375 C-65.69042252 555.14554764 -65.10350128 555.48250153 -64.49879456 555.82966614 C-60.72147563 558.00110134 -56.95620579 560.19213019 -53.19793701 562.3963623 C-50.64939655 563.88927204 -48.09592756 565.37361902 -45.54168701 566.85675049 C-44.31211668 567.57342983 -43.08474508 568.29389568 -41.85968018 569.01824951 C-40.14534499 570.03119374 -38.42243697 571.0295862 -36.69921875 572.02734375 C-35.22714966 572.88960571 -35.22714966 572.88960571 -33.7253418 573.76928711 C-30.83765463 575.0733121 -29.1247003 575.4065843 -26 575 C-23.57547234 573.21274612 -23.57547234 573.21274612 -21.3125 570.8125 C-7.96156632 558.2329536 6.67503674 558.67216227 24 559 C24 559.66 24 560.32 24 561 C24.61746094 561.21914063 25.23492188 561.43828125 25.87109375 561.6640625 C33.05368965 564.35343631 40.00566797 567.56532502 45.125 573.4375 C46.99763798 575.35480985 46.99763798 575.35480985 50.15234375 574.859375 C54.48221869 573.89229633 57.73282982 572.14087819 61.4375 569.8125 C62.93428931 568.9026473 64.43172423 567.99385611 65.9296875 567.0859375 C66.73760742 566.5919043 67.54552734 566.09787109 68.37792969 565.58886719 C73.23706534 562.64443006 78.15254241 559.79608709 83.0625 556.9375 C84.09882568 556.33268799 85.13515137 555.72787598 86.20288086 555.10473633 C92.39158379 551.49837693 98.60698649 547.94798002 104.86376953 544.46142578 C110.76877173 541.15852621 116.60123269 537.73501685 122.4375 534.3125 C131.88997629 528.77310123 141.41476535 523.37740932 150.98510742 518.04467773 C158.03127869 514.11454016 165.03619015 510.12140858 172.00732422 506.05981445 C176.22532222 503.60303319 180.45411264 501.16752403 184.69921875 498.7578125 C185.65538086 498.21463379 186.61154297 497.67145508 187.59667969 497.11181641 C189.44632022 496.06237272 191.29717232 495.01506061 193.14941406 493.97021484 C193.98569336 493.49535645 194.82197266 493.02049805 195.68359375 492.53125 C196.42150146 492.11423828 197.15940918 491.69722656 197.91967773 491.26757812 C201.11185492 489.340205 201.11185492 489.340205 204 487 C204.48490463 484.91527565 204.48490463 484.91527565 204.25 482.60546875 C204.21592041 481.73897705 204.18184082 480.87248535 204.14672852 479.97973633 C204.09830811 479.05829834 204.0498877 478.13686035 204 477.1875 C203.66286242 463.51884587 205.89861026 452.70204315 215 442 C215.62003906 441.26910156 216.24007813 440.53820312 216.87890625 439.78515625 C221.82967056 434.41432709 227.88269593 430.04002763 235.171875 428.55859375 C237.39797183 428.08948442 237.39797183 428.08948442 239 425 C239.18920346 422.33881692 239.26086185 419.78338545 239.24050903 417.12239075 C239.24221788 416.31128411 239.24392673 415.50017746 239.24568737 414.66449183 C239.24899046 411.93745316 239.23796512 409.21065871 239.22705078 406.48364258 C239.22648684 404.53248602 239.22680288 402.58132904 239.22793579 400.63017273 C239.22851099 395.32469749 239.21672968 390.01931218 239.20278788 384.71385789 C239.19030831 379.17249902 239.18911221 373.63113821 239.18673706 368.08976746 C239.18051412 357.59255471 239.1640923 347.09538349 239.14403808 336.59818906 C239.12170438 324.6491386 239.11069202 312.70008619 239.10064721 300.75102007 C239.07972678 276.16732367 239.044535 251.58366416 239 227 C237.83879639 226.4112207 236.67759277 225.82244141 235.48120117 225.21582031 C233.93904453 224.42039832 232.39714738 223.62447308 230.85546875 222.828125 C230.09230347 222.44285645 229.32913818 222.05758789 228.54284668 221.66064453 C216.00089065 215.14166174 209.85958278 204.84805064 205.1953125 191.73828125 C203.16335386 184.43158067 203.83408287 176.51235913 204 169 C203.33806641 168.6189209 202.67613281 168.2378418 201.99414062 167.84521484 C188.82647619 160.26225324 175.67297943 152.65652765 162.55273438 144.99169922 C155.77852496 141.0348535 148.99381356 137.09673318 142.20117188 133.17163086 C137.95223329 130.7146011 133.70915714 128.24795375 129.47265625 125.76953125 C118.05095707 119.08792322 106.5951052 112.47145767 95.0958252 105.92456055 C86.07463461 100.78612024 77.10563088 95.56577339 68.18896484 90.24780273 C66.57387536 89.28583472 64.95584766 88.3287771 63.33447266 87.37744141 C61.73510864 86.43374639 60.1466148 85.47145285 58.56787109 84.49365234 C57.78621582 84.02523926 57.00456055 83.55682617 56.19921875 83.07421875 C55.51045654 82.65100342 54.82169434 82.22778809 54.11206055 81.79174805 C51.36699965 80.76270718 49.77025785 81.15367616 47 82 C45.12674834 83.39955255 45.12674834 83.39955255 43.4375 85.1875 C32.45395389 95.29735495 19.40947483 97.68650564 5.0390625 97.37890625 C-6.00696627 96.80199835 -14.5648998 91.73008922 -22.67578125 84.5078125 C-27.76366555 80.03855433 -30.57965863 80.47529916 -36.26171875 83.7109375 Z " fill="#00E1A8" transform="translate(617,294)"/><path d="M0 0 C1.94267802 -0.00231227 3.88535517 -0.00549387 5.82803053 -0.00945449 C11.09654606 -0.01770596 16.36498796 -0.01372182 21.63350356 -0.00748205 C27.34250647 -0.00291854 33.05149756 -0.00996046 38.76049805 -0.01544189 C49.9166187 -0.0242961 61.07271231 -0.02243173 72.22883398 -0.01661661 C81.30183433 -0.01208464 90.37482714 -0.01149384 99.44782829 -0.01366425 C101.39089203 -0.01412394 101.39089203 -0.01412394 103.37320958 -0.01459293 C106.00540547 -0.01523243 108.63760137 -0.01588086 111.26979726 -0.01653811 C135.20197065 -0.02206773 159.1341295 -0.0163509 183.06630054 -0.00585292 C204.86797429 0.00363783 226.66962467 0.00278643 248.47129822 -0.0067749 C273.02290105 -0.01750651 297.57448977 -0.02168161 322.12609476 -0.01555037 C324.74785546 -0.01491333 327.36961617 -0.01428459 329.99137688 -0.01366425 C331.28106402 -0.01335569 332.57075116 -0.01304714 333.89951973 -0.01272924 C342.95392154 -0.01100802 352.00831501 -0.01390498 361.06271553 -0.01862335 C372.10790689 -0.02425309 383.15306985 -0.02267188 394.19825799 -0.01206186 C399.82519376 -0.00683338 405.4520823 -0.00469985 411.07901764 -0.01136017 C416.24380191 -0.01738067 421.40849581 -0.01394548 426.57327204 -0.00340506 C428.42761824 -0.00119662 430.28197231 -0.00224867 432.13631333 -0.00715664 C482.90419142 -0.13107131 533.69471905 12.17961251 572.6526947 46.25396729 C573.16541931 46.69966064 573.67814392 47.145354 574.20640564 47.60455322 C592.76837298 63.84766818 608.13155684 83.93663931 616.5667572 107.28912354 C617.53303179 109.92726172 618.60219855 112.45411285 619.7776947 115.00396729 C623.59613403 123.46017889 625.57925363 132.01517571 627.2151947 141.12896729 C627.4233783 142.1976001 627.63156189 143.26623291 627.84605408 144.36724854 C632.71978909 171.28737735 631.94161227 198.86825494 631.89948499 226.10588777 C631.89282494 231.8545092 631.89787435 237.60312301 631.90136719 243.35174561 C631.90637621 254.57771492 631.90080899 265.80365448 631.89151689 277.02962009 C631.88106262 290.13764781 631.88120495 303.24566932 631.88168947 316.35370042 C631.88239527 340.46961114 631.87220621 364.58550746 631.85718703 388.70141292 C631.84357097 410.64495867 631.8373257 432.58849352 631.83799744 454.53204346 C631.83803785 455.94089929 631.83807821 457.34975511 631.83811852 458.75861094 C631.83813887 459.45517266 631.83815922 460.15173438 631.83818018 460.86940403 C631.838281 464.37694467 631.83837158 467.88448531 631.83845043 471.39202595 C631.83846715 472.08424239 631.83848386 472.77645883 631.83850108 473.48965153 C631.83894636 495.86451993 631.8318155 518.2393862 631.82408759 540.61425305 C631.82108853 549.7225903 631.82001009 558.83092661 631.81955528 567.9392643 C631.81886846 579.06165796 631.81433951 590.18404308 631.80522247 601.30643312 C631.80065004 606.96691008 631.79754183 612.62737622 631.79881668 618.28785515 C631.80551623 657.20601656 631.80551623 657.20601656 631.20611572 675.97776794 C631.16743982 677.20571494 631.12876391 678.43366194 631.088916 679.69881946 C630.78335008 687.86200116 630.78335008 687.86200116 629.6526947 691.25396729 C629.47957252 692.98310329 629.30937186 694.71262102 629.1592865 696.44390869 C628.09256893 708.109371 625.01189992 719.06671076 621.6526947 730.25396729 C621.44241638 730.97390869 621.23213806 731.6938501 621.01548767 732.43560791 C614.21122862 755.56668371 600.99263364 776.25566777 584.76597595 793.89459229 C583.32563709 795.50266007 581.93726906 797.15845027 580.5980072 798.85162354 C565.79889617 817.12763415 539.84642239 830.71268883 518.06285095 838.07037354 C514.81830263 839.19648824 511.69283559 840.48654219 508.5276947 841.81646729 C476.18310408 854.09971063 437.659432 851.70624861 403.62972486 851.63148224 C397.99723822 851.62248353 392.36477119 851.63112777 386.73228455 851.63734436 C375.75272092 851.64674287 364.77322388 851.64031312 353.79366527 851.62808142 C340.97210468 851.61433868 328.15055925 851.61610983 315.32899316 851.61821475 C291.75077268 851.62148681 268.1725928 851.60866657 244.59438322 851.58836971 C223.13293595 851.56998187 201.67152205 851.56419535 180.21006775 851.56964111 C178.83007993 851.56998755 177.4500921 851.57033365 176.07010428 851.5706794 C175.38781523 851.5708504 174.70552619 851.57102139 174.00256171 851.57119757 C170.56698651 851.5720513 167.13141129 851.57287507 163.69583607 851.57366657 C163.01783475 851.57382365 162.33983342 851.57398073 161.64128661 851.57414257 C143.62341616 851.5781425 125.60554983 851.57259873 107.587681 851.56415528 C105.00229847 851.56294815 102.41691595 851.56174217 99.83153343 851.56053734 C97.92411901 851.55963203 97.92411901 851.55963203 95.97817096 851.55870843 C87.06429079 851.55484694 78.15041663 851.55521591 69.23653603 851.55712318 C58.36594805 851.55925507 47.49539197 851.55394564 36.62481294 851.53950963 C31.09057913 851.53231614 25.55639152 851.52814508 20.02215385 851.53275299 C-32.39345324 851.57095555 -32.39345324 851.57095555 -58.36683655 846.61871338 C-60.20813613 846.27959829 -62.05891268 845.9930973 -63.9098053 845.71099854 C-96.80624079 840.24049754 -127.559569 822.52194813 -150.8473053 799.06646729 C-151.67536682 798.23276611 -152.50342834 797.39906494 -153.35658264 796.5401001 C-175.58032858 773.87493855 -187.31766142 747.07454777 -195.63783264 716.82086182 C-196.27317825 714.52216129 -196.92763725 712.22985854 -197.58558655 709.93756104 C-199.89710221 701.62423304 -200.90074279 693.67935409 -201.17152405 685.09381104 C-201.27284698 681.34601306 -201.27284698 681.34601306 -201.85042655 678.04455298 C-202.39261409 673.90831581 -202.48588494 669.92845045 -202.47314644 665.76475239 C-202.47459988 664.93198755 -202.47605332 664.09922272 -202.4775508 663.24122259 C-202.48120061 660.45031178 -202.47772905 657.65945594 -202.47428894 654.86854553 C-202.47544118 652.84735593 -202.4770294 650.82616655 -202.47901618 648.8049776 C-202.48319582 643.24982535 -202.4811249 637.69469025 -202.47802997 632.13953793 C-202.47577036 626.14808289 -202.47925841 620.15663084 -202.48200989 614.16517639 C-202.48620418 603.10274439 -202.48583394 592.04031711 -202.48309842 580.97788508 C-202.48058185 570.75027269 -202.47992661 560.5226623 -202.48112106 550.29504967 C-202.48119745 549.61635072 -202.48127383 548.93765178 -202.48135253 548.2383862 C-202.48166389 545.48311211 -202.48198229 542.72783802 -202.4823123 539.97256393 C-202.4853722 514.11660683 -202.48259722 488.26065321 -202.4772154 462.40469665 C-202.47247668 439.46423356 -202.47288847 416.52377603 -202.47767639 393.58331299 C-202.48304095 367.79396072 -202.48514822 342.00461153 -202.48206413 316.21525878 C-202.48174343 313.46100247 -202.48143059 310.70674616 -202.48112106 307.95248985 C-202.48104199 307.27435378 -202.48096291 306.59621771 -202.48088143 305.89753205 C-202.47974736 295.68868906 -202.48106803 285.47984831 -202.48360062 275.27100563 C-202.48647053 263.64462316 -202.4856274 252.01824691 -202.48031987 240.39186517 C-202.47770312 234.46543025 -202.47664315 228.53900654 -202.47996902 222.61257172 C-202.48297438 217.17463729 -202.4812694 211.73672436 -202.47599147 206.29879185 C-202.47488514 204.34374589 -202.47541821 202.38869807 -202.47786726 200.43365333 C-202.51722845 166.36675228 -202.51722845 166.36675228 -199.7223053 150.56646729 C-199.46562073 149.08799316 -199.46562073 149.08799316 -199.20375061 147.57965088 C-194.74358718 123.24834627 -186.90565956 100.96178986 -173.3473053 80.25396729 C-172.9741217 79.67727295 -172.60093811 79.10057861 -172.21644592 78.50640869 C-158.78848857 58.00046178 -140.3239547 40.83510122 -119.3473053 28.25396729 C-118.61253967 27.81197998 -117.87777405 27.36999268 -117.1207428 26.91461182 C-106.2015355 20.4849699 -94.90570378 15.74107632 -82.9098053 11.75396729 C-81.67867004 11.34468994 -80.44753479 10.9354126 -79.17909241 10.51373291 C-70.99320983 7.89179104 -62.78129803 5.89781896 -54.3473053 4.25396729 C-52.98810974 3.98024292 -52.98810974 3.98024292 -51.60145569 3.70098877 C-34.59003171 0.55385271 -17.25452642 -0.04572885 0 0 Z M-139.3473053 61.25396729 C-140.10092346 61.9609375 -140.10092346 61.9609375 -140.86976624 62.68218994 C-157.36462442 78.19131936 -169.39072725 97.0261857 -177.3473053 118.25396729 C-177.69148499 119.09314697 -178.03566467 119.93232666 -178.39027405 120.79693604 C-181.52262488 128.72982454 -183.21312499 136.94720987 -184.9332428 145.2744751 C-185.26111718 146.84193118 -185.61254806 148.40445777 -185.9723053 149.96490479 C-189.44724936 165.43926505 -189.64355163 181.38708501 -189.62145996 197.16459656 C-189.62592411 199.20536542 -189.63124196 201.24613257 -189.63732868 203.28689724 C-189.6513786 208.84106329 -189.65317447 214.39517303 -189.65273178 219.94935429 C-189.65439164 225.9613649 -189.66747992 231.97335309 -189.67892456 237.98535156 C-189.70050372 250.42652187 -189.70917098 262.86767961 -189.71395956 275.30886462 C-189.71435133 276.32104559 -189.71435133 276.32104559 -189.71475101 277.35367465 C-189.71501128 278.02997627 -189.71527155 278.70627789 -189.71553971 279.4030735 C-189.71863455 286.93181946 -189.7251438 294.46056195 -189.7317524 301.9893055 C-189.7513899 324.77669698 -189.76779923 347.56408476 -189.77062893 370.35148525 C-189.77072299 371.07890463 -189.77081705 371.80632401 -189.77091396 372.55578641 C-189.7712924 375.50307773 -189.77165639 378.45036906 -189.77201694 381.39766039 C-189.77228865 383.61546907 -189.77256533 385.83327775 -189.77284241 388.05108643 C-189.77293043 388.78394108 -189.77301845 389.51679573 -189.77310914 390.2718581 C-189.77610298 413.99868795 -189.80039876 437.72542703 -189.83785755 461.45222595 C-189.87750429 486.6115365 -189.89879721 511.77079624 -189.89908844 536.93013912 C-189.89918524 539.70134644 -189.89935194 542.47255375 -189.89956856 545.24376106 C-189.89961267 545.92597612 -189.89965679 546.60819117 -189.89970224 547.31107941 C-189.90081398 558.20711624 -189.91810344 569.10306738 -189.94138788 579.99907678 C-189.96443147 590.98777067 -189.96791016 601.97634565 -189.95383858 612.96505468 C-189.94673807 618.89771067 -189.94722523 624.83007515 -189.97024918 630.76269722 C-190.10641716 668.10199241 -190.23200439 708.92318525 -173.3473053 743.25396729 C-173.00715393 743.95054443 -172.66700256 744.64712158 -172.31654358 745.36480713 C-164.31770696 761.5894698 -154.91230884 775.27327942 -142.3473053 788.25396729 C-141.62414124 789.00549072 -140.90097717 789.75701416 -140.15589905 790.53131104 C-138.25047739 792.47402079 -136.31410359 794.37357645 -134.3473053 796.25396729 C-133.77238342 796.81213135 -133.19746155 797.37029541 -132.6051178 797.94537354 C-126.15667723 803.90948917 -118.69199535 808.48819569 -111.3473053 813.25396729 C-110.3573053 813.91396729 -109.3673053 814.57396729 -108.3473053 815.25396729 C-107.0273053 815.25396729 -105.7073053 815.25396729 -104.3473053 815.25396729 C-104.3473053 815.91396729 -104.3473053 816.57396729 -104.3473053 817.25396729 C-103.0273053 817.25396729 -101.7073053 817.25396729 -100.3473053 817.25396729 C-100.3473053 817.91396729 -100.3473053 818.57396729 -100.3473053 819.25396729 C-98.3673053 819.58396729 -96.3873053 819.91396729 -94.3473053 820.25396729 C-94.3473053 820.91396729 -94.3473053 821.57396729 -94.3473053 822.25396729 C-93.69503967 822.4357251 -93.04277405 822.61748291 -92.3707428 822.80474854 C-91.05976624 823.18179932 -91.05976624 823.18179932 -89.7223053 823.56646729 C-88.43453186 823.9319165 -88.43453186 823.9319165 -87.1207428 824.30474854 C-84.3473053 825.25396729 -84.3473053 825.25396729 -81.49964905 826.70709229 C-77.93554255 828.45602187 -74.34565425 829.63251425 -70.5348053 830.69146729 C-69.77361389 830.9031958 -69.01242249 831.11492432 -68.22816467 831.33306885 C-57.46489822 834.17965835 -46.3824685 835.8454418 -35.3473053 837.25396729 C-34.44752797 837.37932365 -34.44752797 837.37932365 -33.52957332 837.50721246 C-24.41742778 838.61081446 -15.2569833 838.39591977 -6.09465027 838.38768005 C-4.12449375 838.38954972 -2.15433761 838.39185105 -0.18418205 838.39454538 C5.21597027 838.40065078 10.61610708 838.40053126 16.01626205 838.399351 C21.8461099 838.39914667 27.67595281 838.40466894 33.50579834 838.40940857 C44.92390797 838.41770941 56.34201245 838.42046318 67.76012485 838.42102095 C77.0460433 838.42149649 86.33196005 838.42355319 95.61787796 838.42672157 C98.29423813 838.42761918 100.9705983 838.42850899 103.64695847 838.42939645 C104.64510313 838.42972802 104.64510313 838.42972802 105.66341233 838.43006629 C124.37537448 838.43621859 143.08733604 838.44016707 161.79929924 838.43972301 C162.85698754 838.43969965 162.85698754 838.43969965 163.93604329 838.43967581 C167.50960288 838.4395927 171.08316246 838.43949366 174.65672205 838.4393911 C175.36639281 838.43937115 176.07606356 838.43935121 176.80723949 838.43933066 C178.24236801 838.43929022 179.67749653 838.43924842 181.11262504 838.43920527 C203.4225376 838.43859302 225.73243494 838.44609062 248.04234314 838.45977783 C273.13184463 838.47516414 298.22133613 838.48374247 323.31084263 838.48281461 C336.58553411 838.48244491 349.86021128 838.48520743 363.13489914 838.49599266 C374.44098341 838.50511975 385.74704275 838.5072549 397.05312912 838.50048324 C402.815552 838.49722882 408.57792711 838.49712214 414.34034538 838.50583649 C419.62829712 838.5137506 424.9161636 838.51222039 430.20411338 838.50355235 C432.10456189 838.50202807 434.00501691 838.50379244 435.90545772 838.50941243 C458.61397277 838.57205155 479.65320753 835.59493791 501.5276947 829.62896729 C502.28324646 829.42295898 503.03879822 829.21695068 503.81724548 829.00469971 C507.28969462 828.02745444 510.47272593 826.95488082 513.6526947 825.25396729 C514.6426947 825.00646729 515.6326947 824.75896729 516.6526947 824.50396729 C525.9803033 821.94736364 534.49604051 816.30063201 542.6526947 811.25396729 C543.41968689 810.80924072 544.18667908 810.36451416 544.97691345 809.90631104 C562.98422372 798.78646834 581.91190028 782.36091019 591.6526947 763.25396729 C591.6526947 762.59396729 591.6526947 761.93396729 591.6526947 761.25396729 C592.6426947 760.92396729 593.6326947 760.59396729 594.6526947 760.25396729 C595.83396102 758.57256237 595.83396102 758.57256237 596.77378845 756.45709229 C597.15027527 755.66883057 597.52676208 754.88056885 597.91465759 754.06842041 C598.30258484 753.22215088 598.69051208 752.37588135 599.0901947 751.50396729 C599.68852112 750.21909424 599.68852112 750.21909424 600.29893494 748.90826416 C605.6475858 737.50491155 605.6475858 737.50491155 607.6526947 725.25396729 C608.3126947 725.25396729 608.9726947 725.25396729 609.6526947 725.25396729 C612.07559805 717.45256219 613.63639339 709.56124707 614.85074425 701.49623108 C615.34404601 698.22374704 615.87655126 694.96246527 616.441782 691.70176697 C619.77862311 670.83136096 619.08100795 649.66359045 619.04486871 628.5959599 C619.03801814 622.67750365 619.04858914 616.75907295 619.05680847 610.84062195 C619.07008649 599.27466876 619.06729407 587.70877427 619.05857055 576.14281887 C619.05166039 566.73052296 619.05080958 557.31824253 619.054142 547.90594482 C619.05437115 547.23431499 619.05460031 546.56268516 619.05483641 545.87070291 C619.05577062 543.1434369 619.05672584 540.41617089 619.0577157 537.6889049 C619.06687122 512.15794476 619.05860805 486.62701642 619.04242501 461.0960612 C619.02820368 438.48836049 619.02945361 415.88071051 619.04380798 393.27301025 C619.05992979 367.79727432 619.06620864 342.32156648 619.05697119 316.84582615 C619.05600925 314.1213894 619.05507071 311.39695263 619.054142 308.67251587 C619.05390477 308.00182883 619.05366753 307.33114179 619.05342311 306.6401309 C619.05003319 296.58160226 619.05397881 286.52309497 619.06158066 276.46456909 C619.07005306 265.00324549 619.06759675 253.5419834 619.05173843 242.08066672 C619.04393025 236.24778375 619.04063422 230.41500279 619.05068588 224.5821209 C619.25904499 173.72921379 619.25904499 173.72921379 608.34312439 124.32452393 C607.65790354 122.26958827 607.02670833 120.20317919 606.4026947 118.12896729 C601.251558 102.80900632 592.90252355 88.68371883 582.6526947 76.25396729 C581.86765564 75.27299072 581.08261658 74.29201416 580.27378845 73.28131104 C575.49662532 67.36076132 570.58666991 62.04298253 564.6526947 57.25396729 C563.44033142 56.21176025 563.44033142 56.21176025 562.20347595 55.14849854 C555.0941187 49.11851815 547.59624349 44.08749116 539.6526947 39.25396729 C539.06020935 38.88851807 538.467724 38.52306885 537.85728455 38.14654541 C530.95512045 33.91357021 524.2247639 30.45122003 516.42222595 28.10943604 C513.87855854 27.32373341 511.5267953 26.38116495 509.0901947 25.31646729 C478.18508645 12.94472065 444.27164279 13.65862828 411.58893394 13.76038671 C405.86300706 13.77373293 400.1371102 13.76360281 394.41117859 13.75662231 C383.23840353 13.74661688 372.06574829 13.7577207 360.89298815 13.77632292 C347.8527083 13.79724281 334.81245334 13.79694657 321.77215987 13.79597776 C297.7928154 13.79494982 273.81353065 13.81492993 249.83420713 13.84498264 C227.99765232 13.87224904 206.16114139 13.88470376 184.3245697 13.88336182 C182.92099259 13.88328099 181.51741548 13.88320027 180.11383837 13.88311966 C179.07292304 13.88305861 179.07292304 13.88305861 178.0109791 13.88299632 C174.51688412 13.88279469 171.02278914 13.88261354 167.52869415 13.88245583 C166.83917951 13.8824224 166.14966487 13.88238897 165.43925584 13.88235453 C143.18764159 13.88146537 120.93603626 13.89571511 98.68442819 13.91118152 C89.61437601 13.91719024 80.54432762 13.91933774 71.47427368 13.92024612 C60.41356196 13.92161608 49.35288474 13.9306246 38.29218763 13.94891174 C32.65900048 13.95808865 27.02585717 13.96426072 21.39266205 13.96172333 C16.22135375 13.95950704 11.05014185 13.96672683 5.87885362 13.98102038 C4.02338541 13.98459809 2.16790708 13.98495654 0.31243867 13.9814858 C-51.02568175 13.89619797 -101.28624358 24.66585688 -139.3473053 61.25396729 Z " fill="#1B4546" transform="translate(412.34730529785156,195.74603271484375)"/><path d="M0 0 C6.41956544 4.78987443 10.1609367 12.33226272 11.5390625 20.1015625 C11.95793505 28.28418914 9.86404139 34.29846887 4.95703125 40.8203125 C-0.26314883 46.57832931 -6.23951958 50.67272487 -14.12890625 51.32421875 C-21.75812591 51.56254942 -28.09919629 51.66332088 -34.25390625 46.58984375 C-35.13949219 45.71392578 -35.13949219 45.71392578 -36.04296875 44.8203125 C-36.61273437 44.26730469 -37.1825 43.71429687 -37.76953125 43.14453125 C-42.91420398 37.6323819 -46.23540106 32.02253144 -46.48046875 24.3828125 C-46.143291 15.98824914 -43.62435262 8.06850482 -37.32421875 2.2265625 C-25.7105674 -7.17496478 -12.81592594 -7.40040083 0 0 Z " fill="#0E1A25" transform="translate(592.04296875,598.1796875)"/><path d="M0 0 C5.94492406 4.32537664 10.24549424 9.14520648 12.3515625 16.2734375 C12.444375 17.8821875 12.444375 17.8821875 12.5390625 19.5234375 C12.61253906 20.42191406 12.68601562 21.32039062 12.76171875 22.24609375 C13.18450506 30.82106733 11.33399611 35.99599344 5.859375 42.52734375 C0.19539057 48.55634051 -5.48672421 51.10291222 -13.6953125 51.796875 C-21.56870364 52.02432852 -27.26427084 51.63599548 -33.4609375 46.5234375 C-39.31547314 40.94387027 -43.76386806 35.20603682 -43.98071289 26.81445312 C-43.89228462 17.68778274 -42.69842354 11.3018792 -36.44140625 4.24609375 C-26.11881154 -5.75109518 -12.45818461 -7.47491076 0 0 Z " fill="#0E1A26" transform="translate(695.4609375,597.4765625)"/><path d="M0 0 C0 0.33 0 0.66 0 1 C-4.62 1.66 -9.24 2.32 -14 3 C-14.33 15.54 -14.66 28.08 -15 41 C-21.6 41 -28.2 41 -35 41 C-35 34.4 -35 27.8 -35 21 C-41.6 21 -48.2 21 -55 21 C-55 15.39 -55 9.78 -55 4 C-196.9 3.67 -338.8 3.34 -485 3 C-485 2.67 -485 2.34 -485 2 C-484.02811782 1.99826375 -483.05623565 1.9965275 -482.05490249 1.99473864 C-424.4358476 1.89171742 -366.81680396 1.78356296 -309.19777107 1.66888306 C-302.27727389 1.65511042 -295.35677662 1.64138545 -288.4362793 1.62768555 C-287.40329539 1.62563942 -287.40329539 1.62563942 -286.34944312 1.62355196 C-264.04645831 1.57939673 -241.74346907 1.53838679 -219.44047535 1.49901587 C-195.8618265 1.45737593 -172.28318755 1.41213519 -148.70455271 1.36312145 C-134.58592338 1.3338883 -120.4672947 1.30751662 -106.34865332 1.28482103 C-96.66311998 1.26897635 -86.97759791 1.24955124 -77.29207712 1.22733159 C-71.70655953 1.21462287 -66.12105051 1.20347266 -60.53552246 1.19658089 C-55.41460195 1.19022742 -50.29371113 1.1793439 -45.17280705 1.1649667 C-43.32733357 1.16056556 -41.48185533 1.15777916 -39.63637685 1.15683801 C-30.08243116 1.15103723 -20.61066387 0.96366105 -11.08339602 0.21929115 C-7.37210393 -0.04465597 -3.71815385 -0.07588069 0 0 Z " fill="none" transform="translate(882,1045)"/><path d="M0 0 C0.33 0 0.66 0 1 0 C0.85656032 1.68770515 0.71011431 3.37515486 0.5625 5.0625 C0.48128906 6.00222656 0.40007812 6.94195312 0.31640625 7.91015625 C0.10369372 9.987386 -0.16459692 12.05959784 -0.48511517 14.12294418 C-1.06118797 18.46074222 -1.34674443 22.75443142 -1.55456352 27.12273693 C-1.59669639 27.99538606 -1.63882925 28.8680352 -1.68223887 29.76712824 C-2.11740572 39.5234995 -2.13921515 49.27196598 -2.12698364 59.03620911 C-2.128139 61.07788343 -2.12972929 63.11955754 -2.13171089 65.16123122 C-2.13584685 70.71210996 -2.13383978 76.26297128 -2.13072467 81.81385005 C-2.1284474 87.82255136 -2.13196157 93.83124983 -2.13470459 99.83995056 C-2.13888009 110.90709961 -2.13853863 121.97424354 -2.13579312 133.04139279 C-2.1332706 143.26043663 -2.13262412 153.47947847 -2.13381577 163.69852257 C-2.13389215 164.37821452 -2.13396854 165.05790647 -2.13404724 165.75819514 C-2.1343586 168.51762821 -2.134677 171.27706128 -2.135007 174.03649435 C-2.13805959 199.8703649 -2.13530191 225.70423195 -2.1299101 251.53810196 C-2.12515821 274.48056268 -2.12559571 297.42301785 -2.13037109 320.36547852 C-2.13572513 346.17384431 -2.13785 371.98220703 -2.13475883 397.7905733 C-2.13443813 400.54074299 -2.13412529 403.29091269 -2.13381577 406.04108238 C-2.13373669 406.71819045 -2.13365761 407.39529852 -2.13357614 408.09292501 C-2.13243911 418.31355112 -2.13376796 428.534175 -2.13629532 438.7548008 C-2.13915255 450.36696635 -2.13834726 461.97912662 -2.13301457 473.59129158 C-2.13038339 479.51620618 -2.12936279 485.4411095 -2.13266373 491.36602402 C-2.13563819 496.7867225 -2.13401461 502.20739921 -2.12868617 507.62809571 C-2.12756701 509.59127008 -2.12814213 511.55444627 -2.13056196 513.51761947 C-2.13359489 516.18203431 -2.13049139 518.84637419 -2.12584114 521.5107851 C-2.12818231 522.27601701 -2.13052347 523.04124893 -2.13293558 523.82966968 C-2.11727047 528.30890091 -1.70488473 532.56447022 -1 537 C-0.93943849 538.64485066 -0.91218045 540.29172957 -0.9375 541.9375 C-0.94652344 542.70964844 -0.95554688 543.48179687 -0.96484375 544.27734375 C-0.97644531 544.84582031 -0.98804688 545.41429687 -1 546 C-1.33 546 -1.66 546 -2 546 C-4.08419619 534.53891894 -4.29162367 523.3996541 -4.2784729 511.79006958 C-4.28348341 509.76508197 -4.2893614 507.74009636 -4.29602563 505.71511352 C-4.31174822 500.18276603 -4.31525203 494.65046944 -4.31667423 489.11810231 C-4.32038186 483.14009117 -4.33554409 477.16210751 -4.34928894 471.18411255 C-4.37152288 460.83746812 -4.38662859 450.49083192 -4.39665604 440.14416885 C-4.40719734 429.29840181 -4.42185025 418.452653 -4.44193649 407.60689926 C-4.44318536 406.93132439 -4.44443423 406.25574951 -4.44572094 405.55970267 C-4.45208512 402.12848607 -4.45852219 398.6972696 -4.46498732 395.26605318 C-4.51059133 370.99329627 -4.54706405 346.72053343 -4.578125 322.44775391 C-4.6083122 298.87417737 -4.64266151 275.30061287 -4.68261719 251.72705078 C-4.68384819 250.99979286 -4.68507919 250.27253494 -4.6863475 249.52323891 C-4.69871487 242.21949429 -4.71116655 234.91574982 -4.72367998 227.61200545 C-4.74916701 212.73481719 -4.77409148 197.85762801 -4.79867554 182.98043823 C-4.8003719 181.95450343 -4.8003719 181.95450343 -4.80210253 180.90784267 C-4.87749622 135.27190899 -4.93962643 89.63595575 -5 44 C-16.385 43.505 -16.385 43.505 -28 43 C-28.02290734 37.4640601 -28.04283491 31.92828345 -28.05493164 26.39233398 C-28.05997244 24.5075627 -28.06680498 22.62279535 -28.07543945 20.73803711 C-28.08751617 18.03498364 -28.09323068 15.33198169 -28.09765625 12.62890625 C-28.10281754 11.78099014 -28.10797882 10.93307404 -28.11329651 10.0594635 C-28.11349195 8.03928932 -28.06206211 6.01922066 -28 4 C-27 3 -27 3 -24.49975586 2.88647461 C-23.41573486 2.89171143 -22.33171387 2.89694824 -21.21484375 2.90234375 C-19.46010742 2.90717773 -19.46010742 2.90717773 -17.66992188 2.91210938 C-15.82237305 2.92467773 -15.82237305 2.92467773 -13.9375 2.9375 C-12.08415039 2.94426758 -12.08415039 2.94426758 -10.19335938 2.95117188 C-7.12885883 2.96300392 -4.06445279 2.97948827 -1 3 C-0.67 2.01 -0.34 1.02 0 0 Z " fill="none" transform="translate(213,340)"/><path d="M0 0 C0.19877676 21.96024465 0.19877676 21.96024465 -1 32 C5.93 32.495 5.93 32.495 13 33 C13 33.33 13 33.66 13 34 C-137.48 34 -287.96 34 -443 34 C-443 33.67 -443 33.34 -443 33 C-310.34 33 -177.68 33 -41 33 C-41 28.71 -41 24.42 -41 20 C-34.4 20 -27.8 20 -21 20 C-21 13.4 -21 6.8 -21 0 C-17.90625 -0.185625 -14.8125 -0.37125 -11.625 -0.5625 C-10.65127441 -0.62381104 -9.67754883 -0.68512207 -8.67431641 -0.74829102 C-7.90780762 -0.79139404 -7.14129883 -0.83449707 -6.3515625 -0.87890625 C-5.56604004 -0.9260376 -4.78051758 -0.97316895 -3.97119141 -1.02172852 C-2 -1 -2 -1 0 0 Z " fill="none" transform="translate(848,162)"/><path d="M0 0 C6.6 0 13.2 0 20 0 C20 6.6 20 13.2 20 20 C26.6 20 33.2 20 40 20 C40 26.6 40 33.2 40 40 C40.99 40.495 40.99 40.495 42 41 C41.505 41.99 41.505 41.99 41 43 C41.66 43 42.32 43 43 43 C42.505 43.99 42.505 43.99 42 45 C41.34515625 44.45472656 40.6903125 43.90945312 40.015625 43.34765625 C26.46189065 32.14859609 12.86965763 22.61743566 -3 15 C-2.34 14.34 -1.68 13.68 -1 13 C-0.53513282 9.87803664 -0.53513282 9.87803664 -0.375 6.375 C-0.25125 4.27125 -0.1275 2.1675 0 0 Z " fill="none" transform="translate(948,202)"/><path d="M0 0 C3.96 0 7.92 0 12 0 C13.12967972 20.09216068 13.27246989 39.91315381 12 60 C11.01 60 10.02 60 9 60 C9 58.68 9 57.36 9 56 C8.34 56 7.68 56 7 56 C6.95512451 55.27635254 6.91024902 54.55270508 6.86401367 53.80712891 C5.94513664 39.36828652 4.73949997 25.21024048 2 11 C1.60274106 8.79192268 1.20669778 6.58362587 0.8125 4.375 C0.4103125 2.209375 0.4103125 2.209375 0 0 Z " fill="none" transform="translate(1036,323)"/><path d="M0 0 C0.87454834 0.00523682 1.74909668 0.01047363 2.65014648 0.01586914 C3.59438477 0.0190918 4.53862305 0.02231445 5.51147461 0.02563477 C6.50469727 0.03401367 7.49791992 0.04239258 8.52124023 0.05102539 C9.51833008 0.05553711 10.51541992 0.06004883 11.54272461 0.06469727 C14.0147551 0.07652516 16.48675496 0.09446124 18.95874023 0.11352539 C18.62874023 6.71352539 18.29874023 13.31352539 17.95874023 20.11352539 C7.56374023 20.60852539 7.56374023 20.60852539 -3.04125977 21.11352539 C-3.06188477 17.83415039 -3.08250977 14.55477539 -3.10375977 11.17602539 C-3.11286377 10.14098877 -3.12196777 9.10595215 -3.13134766 8.03955078 C-3.13509399 6.82513306 -3.13509399 6.82513306 -3.13891602 5.58618164 C-3.14415283 4.75352783 -3.14938965 3.92087402 -3.15478516 3.06298828 C-2.99707919 0.35485463 -2.70687131 0.15054361 0 0 Z " fill="none" transform="translate(1111.041259765625,764.886474609375)"/><path d="M0 0 C6.6 0 13.2 0 20 0 C20 6.93 20 13.86 20 21 C13.4 21 6.8 21 0 21 C0 14.07 0 7.14 0 0 Z " fill="none" transform="translate(787,0)"/><path d="M0 0 C6.6 0 13.2 0 20 0 C20.020625 3.279375 20.04125 6.55875 20.0625 9.9375 C20.071604 10.97253662 20.08070801 12.00757324 20.09008789 13.07397461 C20.09258545 13.88358643 20.09508301 14.69319824 20.09765625 15.52734375 C20.10551147 16.77632446 20.10551147 16.77632446 20.11352539 18.05053711 C20 20 20 20 19 21 C17.58429877 21.08651611 16.164405 21.10704904 14.74609375 21.09765625 C13.9770874 21.09515869 13.20808105 21.09266113 12.41577148 21.09008789 C11.43294189 21.08098389 10.4501123 21.07187988 9.4375 21.0625 C4.7659375 21.0315625 4.7659375 21.0315625 0 21 C0 14.07 0 7.14 0 0 Z " fill="none" transform="translate(827,0)"/><path d="M0 0 C6.6 0 13.2 0 20 0 C20.020625 3.279375 20.04125 6.55875 20.0625 9.9375 C20.071604 10.97253662 20.08070801 12.00757324 20.09008789 13.07397461 C20.09258545 13.88358643 20.09508301 14.69319824 20.09765625 15.52734375 C20.10551147 16.77632446 20.10551147 16.77632446 20.11352539 18.05053711 C20 20 20 20 19 21 C17.58429877 21.08651611 16.164405 21.10704904 14.74609375 21.09765625 C13.9770874 21.09515869 13.20808105 21.09266113 12.41577148 21.09008789 C11.43294189 21.08098389 10.4501123 21.07187988 9.4375 21.0625 C4.7659375 21.0315625 4.7659375 21.0315625 0 21 C0 14.07 0 7.14 0 0 Z " fill="none" transform="translate(1229,0)"/><path d="M0 0 C6.6 0 13.2 0 20 0 C20 6.6 20 13.2 20 20 C13.4 20 6.8 20 0 20 C-0.7239633 15.6562202 -1.1358699 12.07622114 -1.125 7.75 C-1.12757812 6.71359375 -1.13015625 5.6771875 -1.1328125 4.609375 C-1 2 -1 2 0 0 Z " fill="none" transform="translate(1109,202)"/><path d="M0 0 C0.83265381 0.00523682 1.66530762 0.01047363 2.52319336 0.01586914 C3.33280518 0.0183667 4.14241699 0.02086426 4.9765625 0.0234375 C6.01159912 0.0325415 7.04663574 0.04164551 8.11303711 0.05102539 C11.39241211 0.07165039 14.67178711 0.09227539 18.05053711 0.11352539 C17.72053711 6.71352539 17.39053711 13.31352539 17.05053711 20.11352539 C12.49998751 21.02363531 8.78092992 21.05423752 4.23803711 20.67602539 C3.54516602 20.62381836 2.85229492 20.57161133 2.13842773 20.51782227 C0.44199274 20.3891272 -1.25381152 20.25216355 -2.94946289 20.11352539 C-2.97834803 16.96771116 -2.99622212 13.8219307 -3.01196289 10.67602539 C-3.0203418 9.77819336 -3.0287207 8.88036133 -3.03735352 7.95532227 C-3.04057617 7.10131836 -3.04379883 6.24731445 -3.04711914 5.36743164 C-3.05497437 4.18129272 -3.05497437 4.18129272 -3.06298828 2.97119141 C-2.9047402 0.38170833 -2.58645695 0.15062022 0 0 Z " fill="none" transform="translate(648.949462890625,1226.886474609375)"/><path d="M0 0 C6.6 0 13.2 0 20 0 C20 6.6 20 13.2 20 20 C13.4 20.33 6.8 20.66 0 21 C0 14.07 0 7.14 0 0 Z " fill="none" transform="translate(24,966)"/><path d="M0 0 C6.93 0.33 13.86 0.66 21 1 C21.020625 3.743125 21.04125 6.48625 21.0625 9.3125 C21.071604 10.17270752 21.08070801 11.03291504 21.09008789 11.91918945 C21.09258545 12.60198975 21.09508301 13.28479004 21.09765625 13.98828125 C21.10551147 15.03302612 21.10551147 15.03302612 21.11352539 16.09887695 C21 18 21 18 20 21 C13.73 21 7.46 21 1 21 C0.67 14.07 0.34 7.14 0 0 Z " fill="none" transform="translate(84,623)"/><path d="M0 0 C0.804375 -0.00128906 1.60875 -0.00257813 2.4375 -0.00390625 C3.283125 -0.00003906 4.12875 0.00382813 5 0.0078125 C6.2684375 0.00201172 6.2684375 0.00201172 7.5625 -0.00390625 C8.366875 -0.00261719 9.17125 -0.00132812 10 0 C10.7425 0.00112793 11.485 0.00225586 12.25 0.00341797 C14 0.1328125 14 0.1328125 15 1.1328125 C15.08651611 2.54851373 15.10704904 3.9684075 15.09765625 5.38671875 C15.09443359 6.24072266 15.09121094 7.09472656 15.08789062 7.97460938 C15.07951172 8.87244141 15.07113281 9.77027344 15.0625 10.6953125 C15.05798828 11.59701172 15.05347656 12.49871094 15.04882812 13.42773438 C15.03700225 15.66282564 15.0205222 17.89778687 15 20.1328125 C13.72382813 20.19339844 12.44765625 20.25398438 11.1328125 20.31640625 C9.46352984 20.40080818 7.79425963 20.48545636 6.125 20.5703125 C5.28324219 20.60962891 4.44148438 20.64894531 3.57421875 20.68945312 C2.76855469 20.73134766 1.96289062 20.77324219 1.1328125 20.81640625 C0.01737061 20.87139282 0.01737061 20.87139282 -1.12060547 20.92749023 C-3.08864312 21.03237115 -3.08864312 21.03237115 -5 22.1328125 C-5.02887814 18.65366309 -5.04675687 15.17454419 -5.0625 11.6953125 C-5.07087891 10.70208984 -5.07925781 9.70886719 -5.08789062 8.68554688 C-5.09111328 7.74130859 -5.09433594 6.79707031 -5.09765625 5.82421875 C-5.10289307 4.94967041 -5.10812988 4.07512207 -5.11352539 3.17407227 C-4.91001656 -0.48514775 -3.22095226 0.00489294 0 0 Z " fill="none" transform="translate(490,140.8671875)"/><path d="M0 0 C6.6 0 13.2 0 20 0 C20 6.6 20 13.2 20 20 C13.4 20 6.8 20 0 20 C0 13.4 0 6.8 0 0 Z " fill="none" transform="translate(425,1167)"/><path d="M0 0 C6.6 0 13.2 0 20 0 C20 6.6 20 13.2 20 20 C13.4 20 6.8 20 0 20 C0 13.4 0 6.8 0 0 Z " fill="none" transform="translate(24,1006)"/><path d="M0 0 C6.6 0 13.2 0 20 0 C20 6.6 20 13.2 20 20 C13.4 20 6.8 20 0 20 C0 13.4 0 6.8 0 0 Z " fill="none" transform="translate(1129,986)"/><path d="M0 0 C6.6 0 13.2 0 20 0 C20 6.6 20 13.2 20 20 C13.4 20 6.8 20 0 20 C0 13.4 0 6.8 0 0 Z " fill="none" transform="translate(85,986)"/><path d="M0 0 C6.6 0 13.2 0 20 0 C20 6.6 20 13.2 20 20 C13.4 20 6.8 20 0 20 C0 13.4 0 6.8 0 0 Z " fill="none" transform="translate(24,323)"/><path d="M0 0 C6.6 0 13.2 0 20 0 C20 6.6 20 13.2 20 20 C13.4 20 6.8 20 0 20 C0 13.4 0 6.8 0 0 Z " fill="none" transform="translate(1129,222)"/><path d="M0 0 C6.6 0 13.2 0 20 0 C20 6.6 20 13.2 20 20 C13.4 20 6.8 20 0 20 C0 13.4 0 6.8 0 0 Z " fill="none" transform="translate(1008,222)"/><path d="M0 0 C6.6 0 13.2 0 20 0 C20 6.6 20 13.2 20 20 C13.4 20 6.8 20 0 20 C0 13.4 0 6.8 0 0 Z " fill="none" transform="translate(968,202)"/><path d="M0 0 C1.18613892 0.00785522 1.18613892 0.00785522 2.39624023 0.01586914 C3.16524658 0.0183667 3.93425293 0.02086426 4.7265625 0.0234375 C5.70939209 0.0325415 6.69222168 0.04164551 7.70483398 0.05102539 C12.37639648 0.08196289 12.37639648 0.08196289 17.14233398 0.11352539 C17.14233398 6.71352539 17.14233398 13.31352539 17.14233398 20.11352539 C10.54233398 20.44352539 3.94233398 20.77352539 -2.85766602 21.11352539 C-2.87829102 17.83415039 -2.89891602 14.55477539 -2.92016602 11.17602539 C-2.92927002 10.14098877 -2.93837402 9.10595215 -2.94775391 8.03955078 C-2.95150024 6.82513306 -2.95150024 6.82513306 -2.95532227 5.58618164 C-2.96055908 4.75352783 -2.9657959 3.92087402 -2.97119141 3.06298828 C-2.82057118 0.47653133 -2.58948307 0.15824808 0 0 Z " fill="none" transform="translate(267.857666015625,201.886474609375)"/><path d="M0 0 C6.6 0 13.2 0 20 0 C20 6.6 20 13.2 20 20 C13.4 20 6.8 20 0 20 C0 13.4 0 6.8 0 0 Z " fill="none" transform="translate(225,202)"/><path d="M0 0 C6.6 0 13.2 0 20 0 C20 6.6 20 13.2 20 20 C13.4 20 6.8 20 0 20 C0 13.4 0 6.8 0 0 Z " fill="none" transform="translate(787,162)"/><path d="M0 0 C6.6 0 13.2 0 20 0 C20 6.6 20 13.2 20 20 C13.4 20 6.8 20 0 20 C0 13.4 0 6.8 0 0 Z " fill="none" transform="translate(185,162)"/><path d="M0 0 C6.6 0 13.2 0 20 0 C20 6.6 20 13.2 20 20 C13.4 20 6.8 20 0 20 C0 13.4 0 6.8 0 0 Z " fill="none" transform="translate(1008,61)"/><path d="M0 0 C6.6 0 13.2 0 20 0 C20 6.6 20 13.2 20 20 C13.4 20 6.8 20 0 20 C0 13.4 0 6.8 0 0 Z " fill="none" transform="translate(425,41)"/><path d="M0 0 C1.18613892 0.00785522 1.18613892 0.00785522 2.39624023 0.01586914 C3.16524658 0.0183667 3.93425293 0.02086426 4.7265625 0.0234375 C5.70939209 0.0325415 6.69222168 0.04164551 7.70483398 0.05102539 C12.37639648 0.08196289 12.37639648 0.08196289 17.14233398 0.11352539 C17.14233398 6.71352539 17.14233398 13.31352539 17.14233398 20.11352539 C10.54233398 20.11352539 3.94233398 20.11352539 -2.85766602 20.11352539 C-2.88860352 15.44196289 -2.88860352 15.44196289 -2.92016602 10.67602539 C-2.92927002 9.6931958 -2.93837402 8.71036621 -2.94775391 7.69775391 C-2.95025146 6.92874756 -2.95274902 6.15974121 -2.95532227 5.36743164 C-2.96317749 4.18129272 -2.96317749 4.18129272 -2.97119141 2.97119141 C-2.81664371 0.44225938 -2.52893203 0.15454769 0 0 Z " fill="none" transform="translate(1231.857666015625,764.886474609375)"/><path d="M0 0 C1.18613892 0.00785522 1.18613892 0.00785522 2.39624023 0.01586914 C3.16524658 0.0183667 3.93425293 0.02086426 4.7265625 0.0234375 C5.70939209 0.0325415 6.69222168 0.04164551 7.70483398 0.05102539 C12.37639648 0.08196289 12.37639648 0.08196289 17.14233398 0.11352539 C17.14233398 6.71352539 17.14233398 13.31352539 17.14233398 20.11352539 C10.54233398 20.44352539 3.94233398 20.77352539 -2.85766602 21.11352539 C-2.87829102 17.83415039 -2.89891602 14.55477539 -2.92016602 11.17602539 C-2.92927002 10.14098877 -2.93837402 9.10595215 -2.94775391 8.03955078 C-2.95150024 6.82513306 -2.95150024 6.82513306 -2.95532227 5.58618164 C-2.96055908 4.75352783 -2.9657959 3.92087402 -2.97119141 3.06298828 C-2.82057118 0.47653133 -2.58948307 0.15824808 0 0 Z " fill="none" transform="translate(1070.857666015625,483.886474609375)"/><path d="M0 0 C1.18613892 0.00785522 1.18613892 0.00785522 2.39624023 0.01586914 C3.16524658 0.0183667 3.93425293 0.02086426 4.7265625 0.0234375 C5.70939209 0.0325415 6.69222168 0.04164551 7.70483398 0.05102539 C12.37639648 0.08196289 12.37639648 0.08196289 17.14233398 0.11352539 C17.14233398 6.71352539 17.14233398 13.31352539 17.14233398 20.11352539 C10.54233398 20.11352539 3.94233398 20.11352539 -2.85766602 20.11352539 C-2.88860352 15.44196289 -2.88860352 15.44196289 -2.92016602 10.67602539 C-2.92927002 9.6931958 -2.93837402 8.71036621 -2.94775391 7.69775391 C-2.95025146 6.92874756 -2.95274902 6.15974121 -2.95532227 5.36743164 C-2.96317749 4.18129272 -2.96317749 4.18129272 -2.97119141 2.97119141 C-2.81664371 0.44225938 -2.52893203 0.15454769 0 0 Z " fill="none" transform="translate(1231.857666015625,362.886474609375)"/><path d="M0 0 C1.18613892 0.00785522 1.18613892 0.00785522 2.39624023 0.01586914 C3.16524658 0.0183667 3.93425293 0.02086426 4.7265625 0.0234375 C5.70939209 0.0325415 6.69222168 0.04164551 7.70483398 0.05102539 C12.37639648 0.08196289 12.37639648 0.08196289 17.14233398 0.11352539 C17.14233398 6.71352539 17.14233398 13.31352539 17.14233398 20.11352539 C10.54233398 20.11352539 3.94233398 20.11352539 -2.85766602 20.11352539 C-2.88860352 15.44196289 -2.88860352 15.44196289 -2.92016602 10.67602539 C-2.92927002 9.6931958 -2.93837402 8.71036621 -2.94775391 7.69775391 C-2.95025146 6.92874756 -2.95274902 6.15974121 -2.95532227 5.36743164 C-2.96317749 4.18129272 -2.96317749 4.18129272 -2.97119141 2.97119141 C-2.81664371 0.44225938 -2.52893203 0.15454769 0 0 Z " fill="none" transform="translate(407.857666015625,60.886474609375)"/><path d="M0 0 C6.6 0 13.2 0 20 0 C20.020625 3.114375 20.04125 6.22875 20.0625 9.4375 C20.071604 10.42032959 20.08070801 11.40315918 20.09008789 12.41577148 C20.09258545 13.18477783 20.09508301 13.95378418 20.09765625 14.74609375 C20.10551147 15.93223267 20.10551147 15.93223267 20.11352539 17.14233398 C20 19 20 19 19 20 C17.58429877 20.08651611 16.164405 20.10704904 14.74609375 20.09765625 C13.9770874 20.09515869 13.20808105 20.09266113 12.41577148 20.09008789 C11.43294189 20.08098389 10.4501123 20.07187988 9.4375 20.0625 C4.7659375 20.0315625 4.7659375 20.0315625 0 20 C0 13.4 0 6.8 0 0 Z " fill="none" transform="translate(988,41)"/><path d="M0 0 C1.18613892 0.00785522 1.18613892 0.00785522 2.39624023 0.01586914 C3.16524658 0.0183667 3.93425293 0.02086426 4.7265625 0.0234375 C5.70939209 0.0325415 6.69222168 0.04164551 7.70483398 0.05102539 C12.37639648 0.08196289 12.37639648 0.08196289 17.14233398 0.11352539 C17.14233398 6.71352539 17.14233398 13.31352539 17.14233398 20.11352539 C14.02795898 20.13415039 10.91358398 20.15477539 7.70483398 20.17602539 C6.2305896 20.1896814 6.2305896 20.1896814 4.7265625 20.20361328 C3.95755615 20.20611084 3.1885498 20.2086084 2.39624023 20.21118164 C1.60548096 20.21641846 0.81472168 20.22165527 0 20.22705078 C-1.85766602 20.11352539 -1.85766602 20.11352539 -2.85766602 19.11352539 C-2.95603812 17.78308914 -2.98845194 16.44759195 -2.99047852 15.11352539 C-2.99176758 14.30915039 -2.99305664 13.50477539 -2.99438477 12.67602539 C-2.99051758 11.83040039 -2.98665039 10.98477539 -2.98266602 10.11352539 C-2.9865332 9.26790039 -2.99040039 8.42227539 -2.99438477 7.55102539 C-2.9930957 6.74665039 -2.99180664 5.94227539 -2.99047852 5.11352539 C-2.98935059 4.37102539 -2.98822266 3.62852539 -2.98706055 2.86352539 C-2.80531182 0.4054596 -2.45586934 0.1500827 0 0 Z " fill="none" transform="translate(1070.857666015625,724.886474609375)"/><path d="M0 0 C1.18613892 0.00785522 1.18613892 0.00785522 2.39624023 0.01586914 C3.67724609 0.02070313 3.67724609 0.02070313 4.98413086 0.02563477 C5.88196289 0.03401367 6.77979492 0.04239258 7.70483398 0.05102539 C8.6065332 0.05553711 9.50823242 0.06004883 10.43725586 0.06469727 C12.67234712 0.07652315 14.90730835 0.09300319 17.14233398 0.11352539 C17.17121913 3.25933962 17.18909321 6.40512008 17.20483398 9.55102539 C17.21321289 10.44885742 17.2215918 11.34668945 17.23022461 12.27172852 C17.23505859 13.55273438 17.23505859 13.55273438 17.23999023 14.85961914 C17.24784546 16.04575806 17.24784546 16.04575806 17.25585938 17.25585938 C17.14233398 19.11352539 17.14233398 19.11352539 16.14233398 20.11352539 C14.72663275 20.2000415 13.30673898 20.22057443 11.88842773 20.21118164 C11.03442383 20.20795898 10.18041992 20.20473633 9.30053711 20.20141602 C8.40270508 20.19303711 7.50487305 20.1846582 6.57983398 20.17602539 C5.67813477 20.17151367 4.77643555 20.16700195 3.84741211 20.16235352 C1.61232085 20.15052764 -0.62264038 20.13404759 -2.85766602 20.11352539 C-2.88655116 16.96771116 -2.90442525 13.8219307 -2.92016602 10.67602539 C-2.92854492 9.77819336 -2.93692383 8.88036133 -2.94555664 7.95532227 C-2.9487793 7.10131836 -2.95200195 6.24731445 -2.95532227 5.36743164 C-2.96317749 4.18129272 -2.96317749 4.18129272 -2.97119141 2.97119141 C-2.81664371 0.44225938 -2.52893203 0.15454769 0 0 Z " fill="none" transform="translate(668.857666015625,161.886474609375)"/><path d="M0 0 C0.33 0.66 0.66 1.32 1 2 C2.65 2 4.3 2 6 2 C6 15.2 6 28.4 6 42 C0.06 42.495 0.06 42.495 -6 43 C-7.485 43.495 -7.485 43.495 -9 44 C-8.37899527 41.1240849 -7.75333835 38.24931373 -7.125 35.375 C-6.95097656 34.56675781 -6.77695313 33.75851562 -6.59765625 32.92578125 C-5.85033636 29.52132396 -5.08780112 26.25053874 -3.93359375 22.95703125 C-2.71719435 19.10425157 -2.335234 15.32096702 -1.9375 11.3125 C-1.11993243 3.3597973 -1.11993243 3.3597973 0 0 Z " fill="none" transform="translate(1042,884)"/><path d="M0 0 C0.69738281 0.05220703 1.39476562 0.10441406 2.11328125 0.15820312 C3.82596203 0.28724072 5.53805066 0.42409614 7.25 0.5625 C7.44594676 3.70786768 7.6303401 6.85380614 7.8125 10 C7.86857422 10.89783203 7.92464844 11.79566406 7.98242188 12.72070312 C8.03076172 13.57470703 8.07910156 14.42871094 8.12890625 15.30859375 C8.1760376 16.09935303 8.22316895 16.8901123 8.27172852 17.70483398 C8.25 19.5625 8.25 19.5625 7.25 20.5625 C5.83429877 20.64901611 4.414405 20.66954904 2.99609375 20.66015625 C2.2270874 20.65765869 1.45808105 20.65516113 0.66577148 20.65258789 C-0.31705811 20.64348389 -1.2998877 20.63437988 -2.3125 20.625 C-6.9840625 20.5940625 -6.9840625 20.5940625 -11.75 20.5625 C-11.75 13.9625 -11.75 7.3625 -11.75 0.5625 C-7.60614558 -0.4734636 -4.18468682 -0.34410941 0 0 Z " fill="none" transform="translate(1200.75,1166.4375)"/><path d="M0 0 C0.83265381 0.00523682 1.66530762 0.01047363 2.52319336 0.01586914 C3.33280518 0.0183667 4.14241699 0.02086426 4.9765625 0.0234375 C6.01159912 0.0325415 7.04663574 0.04164551 8.11303711 0.05102539 C11.39241211 0.07165039 14.67178711 0.09227539 18.05053711 0.11352539 C17.39053711 6.71352539 16.73053711 13.31352539 16.05053711 20.11352539 C9.78053711 20.11352539 3.51053711 20.11352539 -2.94946289 20.11352539 C-2.98040039 15.44196289 -2.98040039 15.44196289 -3.01196289 10.67602539 C-3.02106689 9.6931958 -3.0301709 8.71036621 -3.03955078 7.69775391 C-3.04204834 6.92874756 -3.0445459 6.15974121 -3.04711914 5.36743164 C-3.05497437 4.18129272 -3.05497437 4.18129272 -3.06298828 2.97119141 C-2.9047402 0.38170833 -2.58645695 0.15062022 0 0 Z " fill="none" transform="translate(107.949462890625,603.886474609375)"/><path d="M0 0 C6.27 0 12.54 0 19 0 C19 6.6 19 13.2 19 20 C12.73 20 6.46 20 0 20 C0 13.4 0 6.8 0 0 Z " fill="none" transform="translate(1189,1006)"/><path d="M0 0 C6.27 0 12.54 0 19 0 C19 6.6 19 13.2 19 20 C12.73 20 6.46 20 0 20 C0 13.4 0 6.8 0 0 Z " fill="none" transform="translate(145,1006)"/><path d="M0 0 C6.27 0 12.54 0 19 0 C19 6.6 19 13.2 19 20 C12.73 20 6.46 20 0 20 C0 13.4 0 6.8 0 0 Z " fill="none" transform="translate(1189,564)"/><path d="M0 0 C0.74886475 0.00523682 1.49772949 0.01047363 2.26928711 0.01586914 C3.36188843 0.01961548 3.36188843 0.01961548 4.4765625 0.0234375 C5.40718506 0.0325415 6.33780762 0.04164551 7.29663086 0.05102539 C11.72069336 0.08196289 11.72069336 0.08196289 16.23413086 0.11352539 C16.23413086 6.71352539 16.23413086 13.31352539 16.23413086 20.11352539 C9.96413086 20.11352539 3.69413086 20.11352539 -2.76586914 20.11352539 C-2.79680664 15.44196289 -2.79680664 15.44196289 -2.82836914 10.67602539 C-2.83747314 9.6931958 -2.84657715 8.71036621 -2.85595703 7.69775391 C-2.85845459 6.92874756 -2.86095215 6.15974121 -2.86352539 5.36743164 C-2.87138062 4.18129272 -2.87138062 4.18129272 -2.87939453 2.97119141 C-2.7286725 0.50486031 -2.47116848 0.15886815 0 0 Z " fill="none" transform="translate(1191.765869140625,965.886474609375)"/><path d="M0 0 C6.6 0 13.2 0 20 0 C20.020625 3.114375 20.04125 6.22875 20.0625 9.4375 C20.071604 10.42032959 20.08070801 11.40315918 20.09008789 12.41577148 C20.09258545 13.18477783 20.09508301 13.95378418 20.09765625 14.74609375 C20.10551147 15.93223267 20.10551147 15.93223267 20.11352539 17.14233398 C20 19 20 19 19 20 C11.2709693 19.81148706 3.59072305 18.36447552 -4 17 C-2.68 16.67 -1.36 16.34 0 16 C0 10.72 0 5.44 0 0 Z " fill="none" transform="translate(887,182)"/><path d="M0 0 C6.6 0 13.2 0 20 0 C20 5.61 20 11.22 20 17 C13.4 17 6.8 17 0 17 C0 11.39 0 5.78 0 0 Z " fill="none" transform="translate(666,1049)"/><path d="M0 0 C1.18613892 0.00785522 1.18613892 0.00785522 2.39624023 0.01586914 C3.67724609 0.02070313 3.67724609 0.02070313 4.98413086 0.02563477 C5.88196289 0.03401367 6.77979492 0.04239258 7.70483398 0.05102539 C8.6065332 0.05553711 9.50823242 0.06004883 10.43725586 0.06469727 C12.67230988 0.07652295 14.90733 0.09445901 17.14233398 0.11352539 C17.14233398 4.07352539 17.14233398 8.03352539 17.14233398 12.11352539 C12.62418117 12.99630294 8.36720704 13.21942042 3.76733398 13.17602539 C1.89948242 13.16249023 1.89948242 13.16249023 -0.00610352 13.14868164 C-1.41762695 13.1312793 -1.41762695 13.1312793 -2.85766602 13.11352539 C-2.88453154 11.13443141 -2.90399977 9.15523568 -2.92016602 7.17602539 C-2.93176758 6.07387695 -2.94336914 4.97172852 -2.95532227 3.83618164 C-2.82391599 0.17257471 -2.82391599 0.17257471 0 0 Z " fill="none" transform="translate(567.857666015625,181.886474609375)"/><path d="M0 0 C6.6 0 13.2 0 20 0 C20 3.96 20 7.92 20 12 C13.67464804 12.95477011 7.39881105 13.38235426 1 13 C0 12 0 12 -0.09765625 9.27734375 C-0.06510417 6.18489583 -0.03255208 3.09244792 0 0 Z " fill="none" transform="translate(686,182)"/><path d="M0 0 C6.6 0 13.2 0 20 0 C20 4.29 20 8.58 20 13 C13.22929005 13.09672443 6.72765655 12.76887503 0 12 C0 8.04 0 4.08 0 0 Z " fill="none" transform="translate(445,182)"/><path d="M0 0 C6.6 0 13.2 0 20 0 C20 3.96 20 7.92 20 12 C17.41703983 12.19522373 14.83395921 12.38144403 12.25 12.5625 C11.52039063 12.61857422 10.79078125 12.67464844 10.0390625 12.73242188 C6.34716467 12.98414218 3.62982115 12.90745529 0 12 C0 8.04 0 4.08 0 0 Z " fill="none" transform="translate(646,182)"/><path d="M0 0 C1.18613892 0.00785522 1.18613892 0.00785522 2.39624023 0.01586914 C3.67724609 0.02070313 3.67724609 0.02070313 4.98413086 0.02563477 C5.88196289 0.03401367 6.77979492 0.04239258 7.70483398 0.05102539 C8.6065332 0.05553711 9.50823242 0.06004883 10.43725586 0.06469727 C12.67230988 0.07652295 14.90733 0.09445901 17.14233398 0.11352539 C17.14233398 4.07352539 17.14233398 8.03352539 17.14233398 12.11352539 C10.54233398 12.44352539 3.94233398 12.77352539 -2.85766602 13.11352539 C-2.95532227 3.83618164 -2.95532227 3.83618164 -2.85766602 1.11352539 C-1.85766602 0.11352539 -1.85766602 0.11352539 0 0 Z " fill="none" transform="translate(728.857666015625,181.886474609375)"/><path d="M0 0 C1.18613892 0.00785522 1.18613892 0.00785522 2.39624023 0.01586914 C3.67724609 0.02070313 3.67724609 0.02070313 4.98413086 0.02563477 C5.88196289 0.03401367 6.77979492 0.04239258 7.70483398 0.05102539 C8.6065332 0.05553711 9.50823242 0.06004883 10.43725586 0.06469727 C12.67234712 0.07652315 14.90730835 0.09300319 17.14233398 0.11352539 C18.14234402 4.78023888 17.97016543 7.14653674 17.14233398 12.11352539 C10.54233398 12.44352539 3.94233398 12.77352539 -2.85766602 13.11352539 C-2.95532227 3.83618164 -2.95532227 3.83618164 -2.85766602 1.11352539 C-1.85766602 0.11352539 -1.85766602 0.11352539 0 0 Z " fill="none" transform="translate(527.857666015625,181.886474609375)"/><path d="M0 0 C1.18613892 0.00785522 1.18613892 0.00785522 2.39624023 0.01586914 C3.67724609 0.02070313 3.67724609 0.02070313 4.98413086 0.02563477 C5.88196289 0.03401367 6.77979492 0.04239258 7.70483398 0.05102539 C8.6065332 0.05553711 9.50823242 0.06004883 10.43725586 0.06469727 C12.67230988 0.07652295 14.90733 0.09445901 17.14233398 0.11352539 C17.14233398 4.07352539 17.14233398 8.03352539 17.14233398 12.11352539 C10.54233398 12.44352539 3.94233398 12.77352539 -2.85766602 13.11352539 C-2.95532227 3.83618164 -2.95532227 3.83618164 -2.85766602 1.11352539 C-1.85766602 0.11352539 -1.85766602 0.11352539 0 0 Z " fill="none" transform="translate(487.857666015625,181.886474609375)"/><path d="M0 0 C1.18613892 0.00785522 1.18613892 0.00785522 2.39624023 0.01586914 C3.67724609 0.02070313 3.67724609 0.02070313 4.98413086 0.02563477 C5.88196289 0.03401367 6.77979492 0.04239258 7.70483398 0.05102539 C8.6065332 0.05553711 9.50823242 0.06004883 10.43725586 0.06469727 C12.67230988 0.07652295 14.90733 0.09445901 17.14233398 0.11352539 C17.14233398 4.07352539 17.14233398 8.03352539 17.14233398 12.11352539 C14.18429963 12.30773977 11.22613235 12.49418725 8.26733398 12.67602539 C7.42557617 12.73209961 6.58381836 12.78817383 5.71655273 12.84594727 C4.91088867 12.89428711 4.10522461 12.94262695 3.27514648 12.99243164 C2.15970459 13.06312866 2.15970459 13.06312866 1.02172852 13.13525391 C-0.85766602 13.11352539 -0.85766602 13.11352539 -2.85766602 12.11352539 C-2.88453881 10.30110487 -2.90400317 8.48857306 -2.92016602 6.67602539 C-2.93176758 5.66668945 -2.94336914 4.65735352 -2.95532227 3.61743164 C-2.82096043 0.17239409 -2.82096043 0.17239409 0 0 Z " fill="none" transform="translate(407.857666015625,181.886474609375)"/><path d="M0 0 C0.66 0.33 1.32 0.66 2 1 C1.071875 1.4021875 1.071875 1.4021875 0.125 1.8125 C-2.2995233 2.95556848 -2.2995233 2.95556848 -4 6 C-4.20105568 8.63514116 -4.28523772 11.16570652 -4.2784729 13.80168152 C-4.2842653 14.60462106 -4.2900577 15.40756059 -4.29602563 16.23483163 C-4.31307542 18.93418261 -4.3159064 21.63336313 -4.31884766 24.33276367 C-4.3281424 26.26422039 -4.33831039 28.19567309 -4.34928894 30.12712097 C-4.37665417 35.37883338 -4.39175765 40.63051886 -4.40471697 45.88228393 C-4.42031902 51.36762449 -4.44711852 56.85290984 -4.4727478 62.33821106 C-4.5195875 72.72913524 -4.55630646 83.12006975 -4.58942068 93.51104575 C-4.62760543 105.3392194 -4.67702511 117.16733767 -4.72740483 128.99546468 C-4.83080189 153.33026878 -4.92003697 177.66510842 -5 202 C-5.33 202 -5.66 202 -6 202 C-6.07001033 176.23583847 -6.12294902 150.47169115 -6.15543652 124.70745373 C-6.17092043 112.74528516 -6.19203903 100.78317561 -6.22631836 88.82104492 C-6.25617409 78.39762643 -6.27556391 67.97425067 -6.28226548 57.55079061 C-6.28618423 52.02913424 -6.29542541 46.50760016 -6.31719017 40.98598289 C-6.3374949 35.79287916 -6.34384601 30.59994852 -6.33932304 25.40680885 C-6.34015095 23.49717901 -6.34615226 21.58754361 -6.35761642 19.677948 C-6.37246657 17.07761981 -6.3689812 14.47795161 -6.36076355 11.87760925 C-6.36950207 11.11594001 -6.3782406 10.35427078 -6.38724393 9.56952065 C-6.34368974 4.49681358 -6.34368974 4.49681358 -4.66495228 2.07014942 C-3 1 -3 1 0 0 Z " fill="#052B2E" transform="translate(405,517)"/><path d="M0 0 C0.33 0 0.66 0 1 0 C0.14479453 10.01490616 -0.93327714 20.005946 -2 30 C-2.33 30 -2.66 30 -3 30 C-3 27.69 -3 25.38 -3 23 C-4.65 23 -6.3 23 -8 23 C-8 16.73 -8 10.46 -8 4 C-4 3 -4 3 -1 3 C-0.67 2.01 -0.34 1.02 0 0 Z " fill="none" transform="translate(213,340)"/><path d="M0 0 C0.33 0.66 0.66 1.32 1 2 C1.66 2.33 2.32 2.66 3 3 C2.01 3 1.02 3 0 3 C0.33 3.66 0.66 4.32 1 5 C1.08342159 6.44848582 1.10732861 7.90070869 1.09765625 9.3515625 C1.09443359 10.20234375 1.09121094 11.053125 1.08789062 11.9296875 C1.07951172 12.81914063 1.07113281 13.70859375 1.0625 14.625 C1.05798828 15.5221875 1.05347656 16.419375 1.04882812 17.34375 C1.03702611 19.56252831 1.01909039 21.78127243 1 24 C-5.435 24.495 -5.435 24.495 -12 25 C-10.77156637 21.92891592 -9.68070602 19.25087774 -8.125 16.40625 C-7.77953125 15.76816406 -7.4340625 15.13007812 -7.078125 14.47265625 C-6 12.5 -6 12.5 -4.921875 10.52734375 C-3.05531774 7.07978464 -1.3615944 3.68765149 0 0 Z " fill="none" transform="translate(1027,942)"/><path d="M0 0 C0.33 0.66 0.66 1.32 1 2 C2.65 2 4.3 2 6 2 C6 8.6 6 15.2 6 22 C3.03 22 0.06 22 -3 22 C-2.69163285 18.89537149 -2.37848803 15.79135402 -2.0625 12.6875 C-1.97548828 11.80642578 -1.88847656 10.92535156 -1.79882812 10.01757812 C-1.71181641 9.17001953 -1.62480469 8.32246094 -1.53515625 7.44921875 C-1.456604 6.66893311 -1.37805176 5.88864746 -1.29711914 5.0847168 C-1 3 -1 3 0 0 Z " fill="none" transform="translate(1042,884)"/><path d="M0 0 C1.18613892 0.00785522 1.18613892 0.00785522 2.39624023 0.01586914 C3.67724609 0.02070312 3.67724609 0.02070312 4.98413086 0.02563477 C5.88196289 0.03401367 6.77979492 0.04239258 7.70483398 0.05102539 C8.6065332 0.05553711 9.50823242 0.06004883 10.43725586 0.06469727 C12.67234712 0.07652315 14.90730835 0.09300319 17.14233398 0.11352539 C17.14233398 2.09352539 17.14233398 4.07352539 17.14233398 6.11352539 C10.54233398 6.11352539 3.94233398 6.11352539 -2.85766602 6.11352539 C-2.85766602 0.17463723 -2.85766602 0.17463723 0 0 Z " fill="none" transform="translate(267.857666015625,1247.886474609375)"/><path d="M0 0 C1.23556641 0.01740234 1.23556641 0.01740234 2.49609375 0.03515625 C3.32238281 0.04417969 4.14867187 0.05320312 5 0.0625 C5.63808594 0.07410156 6.27617187 0.08570313 6.93359375 0.09765625 C5.51570777 4.72705397 3.62840897 8.98276742 1.43359375 13.28515625 C1.12550781 13.90068359 0.81742188 14.51621094 0.5 15.15039062 C-0.89831871 17.9200219 -2.34280527 20.51225478 -4.06640625 23.09765625 C-4.62890625 21.16015625 -4.62890625 21.16015625 -5.06640625 19.09765625 C-4.73640625 18.76765625 -4.40640625 18.43765625 -4.06640625 18.09765625 C-3.85538445 15.26058537 -3.69032812 12.43867979 -3.56640625 9.59765625 C-3.15427072 0.14906761 -3.15427072 0.14906761 0 0 Z " fill="none" transform="translate(228.06640625,281.90234375)"/><path d="M0 0 C0.66 0.33 1.32 0.66 2 1 C1.360625 1.680625 0.72125 2.36125 0.0625 3.0625 C-2.3258493 6.46408839 -2.67877153 8.90433701 -3 13 C-6.15506142 13.93619813 -8.96586502 14.1057123 -12.25 14.0625 C-13.14203125 14.05347656 -14.0340625 14.04445313 -14.953125 14.03515625 C-15.62859375 14.02355469 -16.3040625 14.01195312 -17 14 C-17.33 13.01 -17.66 12.02 -18 11 C-17.03578125 10.45730469 -16.0715625 9.91460938 -15.078125 9.35546875 C-13.80200123 8.6329575 -12.52596412 7.91029317 -11.25 7.1875 C-10.61578125 6.83107422 -9.9815625 6.47464844 -9.328125 6.10742188 C-6.05195463 4.24751265 -2.95014899 2.36160916 0 0 Z " fill="none" transform="translate(971,1012)"/><path d="M0 0 C1.65 0 3.3 0 5 0 C5 6.6 5 13.2 5 20 C3.35 20 1.7 20 0 20 C0 13.4 0 6.8 0 0 Z " fill="none" transform="translate(1249,1106)"/><path d="M0 0 C1.65 0 3.3 0 5 0 C5 6.6 5 13.2 5 20 C3.35 20 1.7 20 0 20 C0 13.4 0 6.8 0 0 Z " fill="none" transform="translate(1249,926)"/><path d="M0 0 C1.65 0 3.3 0 5 0 C5 6.6 5 13.2 5 20 C3.35 20 1.7 20 0 20 C0 13.4 0 6.8 0 0 Z " fill="none" transform="translate(1249,785)"/><path d="M0 0 C1.65 0 3.3 0 5 0 C5 6.6 5 13.2 5 20 C3.35 20 1.7 20 0 20 C0 13.4 0 6.8 0 0 Z " fill="none" transform="translate(1249,745)"/><path d="M0 0 C1.65 0 3.3 0 5 0 C5 6.6 5 13.2 5 20 C3.35 20 1.7 20 0 20 C0 13.4 0 6.8 0 0 Z " fill="none" transform="translate(1249,665)"/><path d="M0 0 C1.65 0 3.3 0 5 0 C5 6.6 5 13.2 5 20 C3.35 20 1.7 20 0 20 C0 13.4 0 6.8 0 0 Z " fill="none" transform="translate(1249,121)"/><path d="M0 0 C1.65 0 3.3 0 5 0 C5 6.6 5 13.2 5 20 C3.35 20 1.7 20 0 20 C0 13.4 0 6.8 0 0 Z " fill="none" transform="translate(1249,21)"/><path d="M0 0 C1.32 0 2.64 0 4 0 C4 6.6 4 13.2 4 20 C2.35 20 0.7 20 -1 20 C-1.02888514 16.85418577 -1.04675923 13.70840531 -1.0625 10.5625 C-1.07087891 9.66466797 -1.07925781 8.76683594 -1.08789062 7.84179688 C-1.09111328 6.98779297 -1.09433594 6.13378906 -1.09765625 5.25390625 C-1.10551147 4.06776733 -1.10551147 4.06776733 -1.11352539 2.85766602 C-1 1 -1 1 0 0 Z " fill="none" transform="translate(1250,1066)"/><path d="M0 0 C1.32 0 2.64 0 4 0 C4 6.6 4 13.2 4 20 C2.35 20 0.7 20 -1 20 C-1.02888514 16.85418577 -1.04675923 13.70840531 -1.0625 10.5625 C-1.07087891 9.66466797 -1.07925781 8.76683594 -1.08789062 7.84179688 C-1.09111328 6.98779297 -1.09433594 6.13378906 -1.09765625 5.25390625 C-1.10551147 4.06776733 -1.10551147 4.06776733 -1.11352539 2.85766602 C-1 1 -1 1 0 0 Z " fill="none" transform="translate(1250,624)"/><path d="M0 0 C1.32 0 2.64 0 4 0 C4 6.6 4 13.2 4 20 C2.35 20 0.7 20 -1 20 C-1.02888514 16.85418577 -1.04675923 13.70840531 -1.0625 10.5625 C-1.07087891 9.66466797 -1.07925781 8.76683594 -1.08789062 7.84179688 C-1.09111328 6.98779297 -1.09433594 6.13378906 -1.09765625 5.25390625 C-1.10551147 4.06776733 -1.10551147 4.06776733 -1.11352539 2.85766602 C-1 1 -1 1 0 0 Z " fill="none" transform="translate(1250,584)"/><path d="M0 0 C0.99 0.33 1.98 0.66 3 1 C3 7.27 3 13.54 3 20 C2.01 20.33 1.02 20.66 0 21 C-0.66 20.67 -1.32 20.34 -2 20 C-2 13.73 -2 7.46 -2 1 C-1.34 0.67 -0.68 0.34 0 0 Z " fill="none" transform="translate(1251,1146)"/><path d="M0 0 C6.93 0 13.86 0 21 0 C21 2.31 21 4.62 21 7 C20.40574219 6.81824219 19.81148437 6.63648438 19.19921875 6.44921875 C12.82913223 4.51738847 6.42941642 2.72347474 0 1 C0 0.67 0 0.34 0 0 Z " fill="none" transform="translate(906,202)"/><path d="M0 0 C1.32 0.33 2.64 0.66 4 1 C3.67 7.6 3.34 14.2 3 21 C2.01 21 1.02 21 0 21 C0 14.07 0 7.14 0 0 Z " fill="none" transform="translate(205,383)"/><path d="M0 0 C5.28 0 10.56 0 16 0 C16.33 0.66 16.66 1.32 17 2 C10.4 2.66 3.8 3.32 -3 4 C-2.67 3.34 -2.34 2.68 -2 2 C-1.34 2 -0.68 2 0 2 C0 1.34 0 0.68 0 0 Z " fill="#03D39D" transform="translate(617,294)"/><path d="M0 0 C3.63 0 7.26 0 11 0 C7.38383036 2.71212723 3.92679647 4.81005582 0 7 C-1.125 2.25 -1.125 2.25 0 0 Z " fill="none" transform="translate(286,222)"/><path d="M0 0 C-0.33 0.66 -0.66 1.32 -1 2 C-3.69797102 2.63860769 -6.33366623 3.16825242 -9.0625 3.625 C-9.82111328 3.7590625 -10.57972656 3.893125 -11.36132812 4.03125 C-13.23952258 4.36200122 -15.11960338 4.68200734 -17 5 C-17.33 4.34 -17.66 3.68 -18 3 C-11.75690073 0.22528921 -6.80203375 -0.37634203 0 0 Z " fill="#05CF9D" transform="translate(537,503)"/><path d="M0 0 C0 0.66 0 1.32 0 2 C-12.66970387 2.18451025 -12.66970387 2.18451025 -18 1 C-18 0.67 -18 0.34 -18 0 C-11.76817361 -1.03863773 -6.25307239 -0.83288874 0 0 Z " fill="none" transform="translate(904,1044)"/><path d="M0 0 C-0.66 1.65 -1.32 3.3 -2 5 C-2.33 5 -2.66 5 -3 5 C-3.04898438 6.20398438 -3.09796875 7.40796875 -3.1484375 8.6484375 C-3.22346343 10.22398198 -3.29901133 11.79950166 -3.375 13.375 C-3.4059375 14.1690625 -3.436875 14.963125 -3.46875 15.78125 C-3.7734375 21.7734375 -3.7734375 21.7734375 -6 24 C-5.91918418 20.56153253 -5.80633848 17.12484688 -5.6875 13.6875 C-5.66494141 12.71103516 -5.64238281 11.73457031 -5.61914062 10.72851562 C-5.58369141 9.79072266 -5.54824219 8.85292969 -5.51171875 7.88671875 C-5.48553467 7.02264404 -5.45935059 6.15856934 -5.43237305 5.26831055 C-4.81123392 2.00969755 -3.46453637 0 0 0 Z " fill="#07433C" transform="translate(681,887)"/><path d="M0 0 C2 2 2 2 2.22705078 4.24658203 C2.21657715 5.15778809 2.20610352 6.06899414 2.1953125 7.0078125 C2.18886719 7.99394531 2.18242188 8.98007812 2.17578125 9.99609375 C2.15902344 11.02863281 2.14226563 12.06117188 2.125 13.125 C2.11597656 14.16527344 2.10695313 15.20554687 2.09765625 16.27734375 C2.07403747 18.85179092 2.04110149 21.42578212 2 24 C1.67 24 1.34 24 1 24 C0.63794536 22.04310963 0.28558579 20.08442332 -0.0625 18.125 C-0.25972656 17.03445313 -0.45695313 15.94390625 -0.66015625 14.8203125 C-1 12 -1 12 0 10 C0.06996014 8.29297265 0.08440154 6.58331997 0.0625 4.875 C0.05347656 3.96492187 0.04445313 3.05484375 0.03515625 2.1171875 C0.02355469 1.41851563 0.01195312 0.71984375 0 0 Z " fill="#03A67C" transform="translate(913,754)"/><path d="M0 0 C0 1.98 0 3.96 0 6 C-6.75 8.125 -6.75 8.125 -9 7 C-7.69013727 5.83037314 -6.3770374 4.66437056 -5.0625 3.5 C-3.96615234 2.52546875 -3.96615234 2.52546875 -2.84765625 1.53125 C-1 0 -1 0 0 0 Z " fill="none" transform="translate(988,999)"/><path d="M0 0 C0.66 0.33 1.32 0.66 2 1 C1.071875 1.4021875 1.071875 1.4021875 0.125 1.8125 C-2.2995233 2.95556848 -2.2995233 2.95556848 -4 6 C-4.4603764 9.19806665 -4.4603764 9.19806665 -4.625 12.6875 C-4.69976562 13.86699219 -4.77453125 15.04648437 -4.8515625 16.26171875 C-4.92503906 17.61716797 -4.92503906 17.61716797 -5 19 C-5.33 19 -5.66 19 -6 19 C-6.0809723 16.56183415 -6.14046972 14.12635616 -6.1875 11.6875 C-6.21263672 10.99720703 -6.23777344 10.30691406 -6.26367188 9.59570312 C-6.33768077 4.48908926 -6.33768077 4.48908926 -4.67578125 2.08203125 C-3 1 -3 1 0 0 Z " fill="#073E3B" transform="translate(405,517)"/><path d="M0 0 C0.66 0.33 1.32 0.66 2 1 C0.90716423 2.03295436 -0.19970579 3.05107835 -1.3125 4.0625 C-1.92738281 4.63097656 -2.54226563 5.19945312 -3.17578125 5.78515625 C-3.77777344 6.18605469 -4.37976563 6.58695312 -5 7 C-5.99 6.67 -6.98 6.34 -8 6 C-5.36 4.02 -2.72 2.04 0 0 Z " fill="#093130" transform="translate(661,379)"/><path d="M0 0 C3.96 0.33 7.92 0.66 12 1 C12 1.33 12 1.66 12 2 C8.37 2.33 4.74 2.66 1 3 C0.67 2.01 0.34 1.02 0 0 Z " fill="#BAC7C6" transform="translate(358,1043)"/><path d="M0 0 C0 0.99 0 1.98 0 3 C-2.5 5.1875 -2.5 5.1875 -5 7 C-5.66 6.67 -6.32 6.34 -7 6 C-4.69 4.02 -2.38 2.04 0 0 Z " fill="#093C38" transform="translate(558,598)"/></svg>